<svg width="180" height="180" viewBox="0 0 180 180" fill="none" xmlns="http://www.w3.org/2000/svg">
<rect width="180" height="180" fill="white"/>
<g clip-path="url(#clip0_597_5548)">
<path d="M13.5098 100.26V107.787H132.076C132.101 107.787 132.125 107.783 132.151 107.783H141.33C141.355 107.783 141.379 107.783 141.404 107.787H167.908V100.26H13.5098Z" fill="#002E67"/>
<path d="M21.6187 82.4309H26.9156L34.8421 103.659H29.7645L28.2866 99.2966H20.0371L18.5179 103.659H13.6211L21.6187 82.4309ZM21.3099 95.637H27.0483L24.2177 87.2843L21.3099 95.637Z" fill="#003079"/>
<path d="M21.5898 86.562H26.8867L22.7075 83.4996C25.3492 90.5755 27.9914 97.6515 30.634 104.727L34.8762 99.5269H29.802L33.9812 102.589L32.5026 98.2273C32.2452 97.3594 31.6999 96.593 30.9472 96.0415C30.1946 95.49 29.2746 95.1826 28.3234 95.1649H20.0706C19.1129 95.1716 18.1832 95.4713 17.4198 96.0192C16.6564 96.567 16.1001 97.3339 15.8338 98.2055L14.3153 102.568L18.552 99.5269H13.6552L17.829 104.749L25.8265 83.5234C26.6268 81.3994 24.9322 79.0106 22.7719 78.4486C20.3495 77.8142 18.2128 79.2255 17.4126 81.3423L9.41844 102.568C8.46385 105.101 10.9316 107.789 13.5922 107.789H18.4891C19.4467 107.782 20.3764 107.483 21.1398 106.935C21.9033 106.387 22.4595 105.62 22.7258 104.749L24.245 100.386L20.0083 103.427H28.2584L24.0792 100.365L25.5578 104.727C25.8151 105.595 26.3605 106.361 27.1131 106.912C27.8657 107.464 28.7857 107.771 29.737 107.789H34.8146C37.4766 107.789 40.0188 105.167 39.0567 102.589C36.415 95.5132 33.7729 88.4375 31.1303 81.3616C30.4796 79.6187 29.0031 78.2992 26.951 78.2992H21.6527C21.0765 78.2897 20.5039 78.3885 19.9682 78.59C19.4325 78.7915 18.9442 79.0916 18.5317 79.473C18.1192 79.8544 17.7905 80.3095 17.5648 80.812C17.339 81.3145 17.2206 81.8544 17.2165 82.4005C17.2123 82.9466 17.3224 83.488 17.5405 83.9936C17.7586 84.4991 18.0803 84.9586 18.4869 85.3456C18.8936 85.7326 19.3772 86.0394 19.9098 86.2482C20.4424 86.457 21.0134 86.5636 21.5898 86.562Z" fill="#002F6F"/>
<path d="M21.2782 99.7673H27.0159C29.7422 99.7673 32.1361 97.1578 31.2581 94.5675L28.4281 86.2142C28.1596 85.3556 27.606 84.602 26.8494 84.0653C26.0929 83.5285 25.1738 83.2373 24.2287 83.2349C23.2836 83.2324 22.3629 83.5189 21.6033 84.0517C20.8437 84.5845 20.2857 85.3352 20.0122 86.1924L17.1071 94.5451C16.3624 96.6857 17.9602 99.0476 20.1618 99.6198C21.2764 99.8923 22.4592 99.7425 23.4592 99.2022C24.4591 98.662 25.1975 97.7737 25.5177 96.7261L28.4227 88.3721L20.0068 88.3503L22.8374 96.7036L27.0795 91.5032H21.3412C20.7686 91.4993 20.2008 91.6022 19.6702 91.8062C19.1396 92.0103 18.6566 92.3113 18.2487 92.6922C17.8409 93.073 17.5163 93.5263 17.2933 94.026C17.0704 94.5258 16.9535 95.0622 16.9494 95.6048C16.9453 96.1473 17.0539 96.6853 17.2692 97.1881C17.4846 97.6908 17.8023 98.1485 18.2042 98.5349C18.6062 98.9213 19.0846 99.2289 19.612 99.4401C20.1394 99.6514 20.7056 99.7621 21.2782 99.766V99.7673Z" fill="#002F6F"/>
<path d="M45.2117 93.5923C45.1376 93.0253 44.9238 92.4827 44.5875 92.0085C44.3214 91.6847 43.9748 91.4284 43.5787 91.2625C43.1826 91.0966 42.7492 91.0263 42.3174 91.0578C41.6455 91.0311 40.9838 91.2199 40.4392 91.5937C39.8946 91.9675 39.4989 92.5044 39.3162 93.1176C38.9985 94.0542 38.854 95.0357 38.889 96.019C38.8548 96.9599 38.9995 97.899 39.3162 98.7914C39.5013 99.3816 39.8903 99.8956 40.4209 100.251C40.9515 100.606 41.5928 100.782 42.2416 100.751C42.6417 100.79 43.0458 100.74 43.422 100.605C43.7981 100.47 44.1357 100.253 44.4081 99.973C44.8626 99.3839 45.132 98.6849 45.1853 97.9569H49.6082C49.4923 99.2416 48.9967 100.469 48.1783 101.5C46.8189 103.296 44.8055 104.194 42.138 104.194C39.4706 104.194 37.5073 103.446 36.248 101.949C34.9288 100.271 34.2623 98.2129 34.3612 96.1229C34.3612 93.4287 35.056 91.3332 36.4457 89.8364C37.169 89.0819 38.0601 88.4891 39.0548 88.1008C40.0494 87.7125 41.1226 87.5385 42.1969 87.5913C44.0027 87.5178 45.7876 87.9812 47.3016 88.9166C48.6249 89.8005 49.4085 91.3614 49.6522 93.5993L45.2117 93.5923Z" fill="#003079"/>
<path d="M54.0074 93.6218C53.6432 90.7954 52.8876 87.8055 50.363 85.9747C47.6608 84.035 44.2716 83.1604 40.9045 83.5339C37.8973 83.7371 35.0953 85.0533 33.1039 87.198C30.9822 89.61 30.1508 92.5261 30.0039 95.6206C29.8316 98.4792 30.6132 101.317 32.238 103.731C33.6653 105.733 35.8115 107.177 38.2777 107.792H46.0268C47.0921 107.488 48.0981 107.023 49.0056 106.413C50.4236 105.429 51.6003 104.167 52.4551 102.712C53.3099 101.258 53.8226 99.6451 53.958 97.9851C54.0341 97.2211 53.826 96.456 53.3696 95.8221C53.8675 95.1911 54.0953 94.4052 54.0074 93.6218Z" fill="#002F6F"/>
<path d="M58.3216 94.111C58.9123 94.0626 59.4937 93.9416 60.0514 93.7511C60.318 93.6765 60.5525 93.5232 60.7206 93.3133C60.8887 93.1035 60.9816 92.8483 60.9857 92.5849C61.0141 92.321 60.9615 92.0549 60.8343 91.8186C60.7072 91.5823 60.5108 91.3858 60.2687 91.2525C59.6088 90.9726 58.8878 90.8466 58.1659 90.885C57.7655 90.8456 57.3609 90.8896 56.9804 91.0139C56.5999 91.1383 56.2526 91.3399 55.9629 91.6047C55.6263 92.0244 55.4136 92.5215 55.3468 93.0448H51.167C51.201 91.8256 51.6261 90.6451 52.3856 89.6604C53.5356 88.2782 55.5098 87.5869 58.3081 87.5865C59.9893 87.5564 61.6538 87.9072 63.163 88.6097C64.577 89.2909 65.2843 90.5775 65.2847 92.4694V99.67C65.2847 100.17 65.2949 100.774 65.3152 101.485C65.3037 101.864 65.3924 102.24 65.5731 102.579C65.7375 102.789 65.9579 102.953 66.2115 103.054V103.659H61.5002C61.3777 103.371 61.287 103.072 61.2294 102.766C61.1789 102.488 61.1385 102.171 61.1082 101.816C60.5016 102.434 59.8008 102.963 59.0291 103.385C58.0585 103.902 56.9604 104.165 55.8472 104.148C54.4847 104.196 53.1523 103.761 52.1094 102.929C51.6081 102.495 51.2155 101.959 50.9603 101.362C50.7051 100.766 50.5937 100.122 50.6341 99.4795C50.5733 98.6401 50.7637 97.8016 51.1835 97.0602C51.6032 96.3188 52.2353 95.7048 53.0071 95.2887C54.2046 94.7272 55.5034 94.3851 56.8349 94.2803L58.3216 94.111ZM60.9701 96.027C60.7047 96.1848 60.4235 96.3173 60.1306 96.4228C59.7519 96.5473 59.3629 96.6413 58.9675 96.7038L57.9811 96.8764C57.2901 96.9618 56.6181 97.1517 55.9907 97.4389C55.6643 97.6086 55.395 97.8621 55.2139 98.1703C55.0329 98.4785 54.9473 98.8289 54.967 99.1812C54.9394 99.463 54.9815 99.747 55.09 100.011C55.1985 100.274 55.3703 100.51 55.5919 100.7C56.026 101.018 56.5632 101.184 57.1118 101.168C58.0475 101.172 58.9612 100.9 59.7271 100.39C60.5251 99.8721 60.9394 98.9263 60.9701 97.5531V96.027Z" fill="#003079"/>
<path d="M69.6455 100.508C69.6455 100.238 69.651 99.968 69.6496 99.7011C69.6455 98.9423 69.6496 98.1821 69.6496 97.4226C69.7585 95.0085 69.6707 92.59 69.3869 90.1887C68.5109 84.8522 61.7509 83.1389 56.9393 83.5218C54.3835 83.6276 51.9359 84.5295 49.9763 86.0877C47.8579 87.8839 47.0523 90.4183 46.8078 93.0157C46.7475 93.7572 46.9451 94.4972 47.3704 95.1223C46.6057 96.6043 46.235 98.2409 46.2906 99.8897C46.3407 101.659 46.9697 103.37 48.0906 104.786C49.2115 106.202 50.7689 107.253 52.5476 107.793H59.0557C59.3421 107.705 59.6271 107.611 59.906 107.501C60.4033 107.694 60.9355 107.792 61.4726 107.79H66.1846C67.3379 107.788 68.4442 107.357 69.2656 106.59C70.0869 105.823 70.5576 104.781 70.5764 103.689C70.6551 102.559 70.3269 101.438 69.6455 100.508ZM55.0268 99.857L55.041 99.8641V99.8679L55.0261 99.8596L55.0268 99.857ZM54.9929 99.7152C54.9882 99.6973 54.9855 99.6838 54.9801 99.6639C54.9862 99.6851 54.9902 99.6992 54.9956 99.7165L54.9929 99.7152ZM54.9469 99.0706C54.9882 99.0244 55.0207 98.9859 55.0485 98.9525L55.0654 98.9429C55.0322 98.9743 54.9929 99.0154 54.9469 99.0673V99.0706ZM55.0376 99.916V99.9032C55.0606 99.9378 55.0884 99.9757 55.1222 100.021C55.0877 99.9763 55.0627 99.9442 55.0376 99.9135V99.916ZM56.1825 99.9917C55.8047 99.9725 55.0606 99.9449 55.5799 100.031C55.4714 100.011 55.3617 99.9972 55.2516 99.9892C55.1964 99.9526 55.1392 99.9188 55.0803 99.8878V99.884C55.2766 99.9673 55.1791 99.8461 55.0755 99.7666C55.066 99.6498 55.0471 99.4894 55.0315 99.3535C55.0457 99.2893 55.064 99.1706 55.083 99.0488C55.1155 99.0853 55.2265 98.9121 55.2346 98.846L55.2976 98.8076L55.3755 98.7825C55.7643 98.6649 56.1599 98.5681 56.5602 98.4926C56.8148 98.4387 58.3428 98.236 56.8703 98.4092L58.292 98.2437C58.4829 98.2212 58.6711 98.1892 58.8567 98.1526C58.9514 98.1481 59.0455 98.1417 59.1403 98.1334C58.7201 98.3308 58.3379 98.5939 58.0097 98.9115C58.0029 98.9179 57.2467 99.5594 57.4004 99.4798C57.0837 99.6809 56.7543 99.8635 56.414 100.026C56.9718 99.748 56.2217 99.9257 56.1825 99.9892V99.9917Z" fill="#002F6F"/>
<path d="M58.7635 92.4619C58.3184 92.6873 58.3983 92.677 59.0031 92.4311C58.7389 92.5234 58.4672 92.595 58.1907 92.6454C57.8786 92.7147 57.5577 92.7609 57.2429 92.8167C56.0415 93.0045 54.8763 93.3606 53.7854 93.8732C49.5452 95.9169 49.7585 101.911 53.4151 104.275C56.7785 106.451 61.917 105.011 64.0726 101.934C65.3041 100.176 65.3325 98.0806 65.3325 96.0548C65.3366 95.5123 65.228 94.9743 65.0127 94.4715C64.7973 93.9688 64.4796 93.5111 64.0777 93.1247C63.6757 92.7383 63.1974 92.4307 62.6699 92.2195C62.1425 92.0082 61.5763 91.8975 61.0037 91.8936C60.4311 91.8897 59.8633 91.9927 59.3327 92.1967C58.8021 92.4007 58.3191 92.7017 57.9113 93.0826C57.5035 93.4634 57.1788 93.9167 56.9559 94.4164C56.7329 94.9162 56.616 95.4526 56.6119 95.9952C56.6119 96.6258 56.6248 97.2563 56.5936 97.8856C56.637 96.9952 56.5672 97.8298 56.4873 98.0684C56.6593 97.5479 57.0275 97.1055 57.5218 96.8259C56.616 97.4872 58.2117 96.722 57.1616 97.0344C57.6802 97.0147 57.6748 97.0147 57.1454 97.0344C57.4593 97.0502 57.7644 97.1383 58.0343 97.291C58.396 97.4571 58.7034 97.713 58.9239 98.0314C59.1444 98.3498 59.2698 98.7188 59.2868 99.0993C59.3037 99.4798 59.2116 99.8576 59.0201 100.192C58.8287 100.527 58.5451 100.807 58.1995 101.001C57.2862 101.584 57.7608 101.163 58.274 101.031C58.6125 100.944 58.9618 100.892 59.3071 100.832C60.6651 100.638 61.9762 100.217 63.1796 99.59C63.6787 99.3179 64.1161 98.9548 64.4663 98.5217C64.8165 98.0887 65.0728 97.5941 65.2202 97.0667C65.3677 96.5393 65.4034 95.9894 65.3254 95.4488C65.2474 94.9082 65.0571 94.3876 64.7656 93.9171C64.4741 93.4465 64.0871 93.0354 63.627 92.7073C63.1669 92.3792 62.6427 92.1407 62.0848 92.0056C61.5269 91.8705 60.9463 91.8415 60.3764 91.9201C59.8066 91.9987 59.2589 92.1836 58.7648 92.4639L58.7635 92.4619Z" fill="#002F6F"/>
<path d="M76.7756 88.2149C77.5541 88.6313 78.2079 89.2287 78.6753 89.9507V82.4622H83.0678V103.661H78.8574V101.486C78.3432 102.32 77.6168 103.018 76.7445 103.517C75.8359 103.966 74.8201 104.184 73.7961 104.15C72.8563 104.158 71.9273 103.961 71.0803 103.575C70.2332 103.189 69.4906 102.625 68.9094 101.925C67.54 100.313 66.8351 98.2839 66.9257 96.216C66.9257 93.5372 67.5768 91.4298 68.8789 89.8937C69.4962 89.1471 70.2908 88.5493 71.1981 88.1489C72.1054 87.7485 73.0997 87.5568 74.1 87.5895C75.0343 87.5727 75.9568 87.7883 76.7756 88.2149ZM77.8399 99.3984C78.5179 98.4008 78.8524 97.2283 78.7972 96.0429C78.7972 94.1223 78.2856 92.7493 77.2624 91.9239C76.6529 91.4308 75.875 91.1645 75.0736 91.1747C74.522 91.1401 73.9709 91.2485 73.4795 91.4883C72.988 91.7282 72.5749 92.0903 72.2843 92.5359C71.6978 93.5933 71.3925 94.7705 71.3951 95.9651C71.3977 97.1596 71.7081 98.3356 72.2992 99.3907C72.5948 99.8178 73.0043 100.163 73.4861 100.392C73.968 100.621 74.5051 100.725 75.0431 100.694C75.5872 100.722 76.1296 100.617 76.6191 100.39C77.1085 100.164 77.5287 99.8222 77.8399 99.3984Z" fill="#003079"/>
<path d="M83.0989 78.3296H78.7064C77.5534 78.3325 76.4476 78.7636 75.6265 79.5305C74.8053 80.2974 74.3343 81.3389 74.3146 82.4312V83.5044C71.35 83.4318 68.4764 84.478 66.3259 86.4128C63.2482 89.1327 62.2638 93.7083 62.647 97.5283C63.0972 101.995 65.6502 105.97 70.1618 107.66C70.2891 107.707 70.4184 107.752 70.5477 107.794H77.2847C77.437 107.749 77.5866 107.701 77.7342 107.647C78.0899 107.741 78.4571 107.789 78.8263 107.79H83.0373C84.1905 107.788 85.2969 107.357 86.1182 106.59C86.9395 105.823 87.4102 104.781 87.4291 103.688V82.4908C87.426 81.3982 86.9708 80.3502 86.1611 79.5721C85.3514 78.794 84.2519 78.3479 83.0989 78.3296ZM78.7071 97.4712C77.9831 97.5006 77.2767 97.6926 76.6464 98.0315C76.0161 98.3703 75.4798 98.8462 75.0817 99.42C75.0086 99.524 74.9585 99.5984 74.9165 99.6612C74.8318 99.7247 74.752 99.7937 74.6775 99.8678L74.5787 99.9281L74.4941 99.9538L74.2232 100.009C73.9447 100.023 73.6656 100.023 73.3871 100.009C74.1109 100.031 72.8902 99.7087 72.9132 99.8094C72.7467 99.7119 72.7101 99.7029 72.7974 99.7831C72.6194 99.6362 72.4461 99.4836 72.2836 99.3206C72.2193 99.2507 72.1685 99.1962 72.1238 99.1487C71.9884 98.9563 71.8645 98.7638 71.7501 98.5611C71.7075 98.4764 71.6743 98.4136 71.6465 98.3597C71.5741 98.1544 71.5071 97.9472 71.4516 97.7362C71.4008 97.5437 71.3588 97.3513 71.3216 97.1588C71.3263 97.0087 71.3168 96.8584 71.2931 96.7098C71.266 96.2505 71.2931 95.788 71.3114 95.3287C71.3249 95.1061 71.3486 94.8842 71.373 94.6622C71.3696 94.7527 71.3981 94.6321 71.4604 94.2934C71.4874 94.1702 71.7752 93.3838 71.7934 93.2593C71.9288 93.0322 72.138 92.7057 72.1827 92.6024C72.3938 92.4295 72.5903 92.2412 72.7704 92.0392C72.8638 91.9847 72.9593 91.934 73.0561 91.884L73.1915 91.8404C73.3391 91.7999 73.4894 91.7659 73.639 91.7358C73.7806 91.7488 73.9234 91.7454 74.0641 91.7255L74.3702 91.7371L74.5929 91.8012C75.0379 92.06 75.095 92.0952 74.7642 91.9071L74.9179 92.0591C75.339 92.6433 75.9034 93.122 76.5627 93.4541C77.2219 93.7863 77.9564 93.962 78.703 93.9662L78.7071 97.4712Z" fill="#002F6F"/>
<path d="M81.61 101.462C83.6993 98.3659 83.815 93.3149 81.4861 90.2885C78.6867 86.6481 72.731 85.7596 69.3892 89.3423C66.4327 92.5125 66.2872 97.9246 68.5335 101.48C71.0723 105.499 77.839 106.013 80.9337 102.301C82.4035 100.538 82.7332 98.1735 80.9005 96.4588C79.3515 95.0091 76.2108 94.7191 74.7343 96.4903C74.3732 96.8465 74.3899 96.8903 74.7844 96.6217L75.1642 96.5191C74.6744 96.6393 74.6426 96.653 75.0687 96.5602C75.4072 96.5448 75.6435 96.852 75.8703 97.0214L76.0538 97.296C75.8159 96.8773 75.7985 96.8963 76.0016 97.353C75.9745 97.2889 75.6936 96.0925 75.7938 96.8629C75.7466 96.392 75.7364 95.9183 75.7633 95.4459C75.7491 95.954 75.9434 94.7307 75.9414 94.7358C75.7437 95.3876 76.5371 94.1341 75.8229 94.9C75.6105 95.1071 75.3386 95.2505 75.0409 95.3125C75.7769 95.0559 75.0409 95.292 74.7126 95.2394L74.414 95.0816C74.8595 95.3339 74.8663 95.3318 74.4343 95.0752C73.6375 94.3695 74.5785 95.5537 74.196 94.6383C74.2299 94.7191 74.4871 95.8834 74.3876 95.095C74.4325 95.5481 74.4429 96.0037 74.4188 96.4582C74.3863 97.6815 74.5975 95.9232 74.2901 97.0009C74.502 96.2574 74.1771 97.1548 74.0586 97.3299C73.4936 98.2779 73.3464 99.3988 73.649 100.449C73.9517 101.499 74.6796 102.394 75.6747 102.938C76.6697 103.482 77.8512 103.633 78.9625 103.356C80.0737 103.079 81.0247 102.398 81.6086 101.46L81.61 101.462Z" fill="#002F6F"/>
<path d="M96.7566 88.2784C97.9248 88.7784 98.9181 89.584 99.6197 90.6006C100.315 91.5728 100.766 92.6825 100.94 93.8451C101.072 94.8786 101.12 95.9203 101.082 96.9608H89.0163C89.084 98.5358 89.6617 99.64 90.7495 100.273C91.4696 100.682 92.2981 100.887 93.1373 100.864C93.8144 100.914 94.4918 100.769 95.0804 100.448C95.6689 100.127 96.1412 99.6445 96.435 99.0642H100.857C100.657 100.149 100.094 101.143 99.2514 101.901C97.7674 103.427 95.6896 104.19 93.0181 104.191C90.8936 104.218 88.8272 103.534 87.1823 102.259C85.497 100.971 84.6543 98.8758 84.6543 95.9729C84.6543 93.2535 85.415 91.1683 86.9365 89.7172C87.7144 88.9897 88.6415 88.4212 89.6606 88.0468C90.6796 87.6725 91.7689 87.5002 92.8611 87.5407C94.2001 87.5214 95.5282 87.773 96.7566 88.2784ZM90.2769 91.8238C89.6293 92.4966 89.2259 93.3481 89.126 94.2538H96.5887C96.5846 93.7876 96.4801 93.3272 96.2817 92.9006C96.0832 92.4741 95.7949 92.0904 95.4344 91.7732C94.7177 91.2 93.8025 90.8986 92.8651 90.9271C92.3918 90.8992 91.9174 90.9645 91.472 91.1189C91.0265 91.2732 90.6196 91.5132 90.2769 91.8238Z" fill="#003079"/>
<path d="M105.443 96.9922C105.491 92.0874 103.965 87.0172 98.9367 84.7021C98.721 84.6043 98.4986 84.5201 98.2712 84.45C98.1521 84.3955 98.0309 84.3429 97.9077 84.2948C93.0724 82.3992 86.7546 83.4961 83.3316 87.3533C80.153 90.9347 79.3941 96.6073 81.1435 100.956C81.8281 102.618 82.9163 104.102 84.3198 105.29C85.7234 106.478 87.4027 107.336 89.2216 107.794H96.9592C100.827 106.719 104.362 104.03 105.062 100.155C105.155 99.6334 105.163 99.1008 105.085 98.5766C105.316 98.0767 105.438 97.5377 105.443 96.9922ZM91.1091 91.9348C91.4219 91.8424 91.7396 91.7657 92.061 91.7051L92.3501 91.6846C92.816 91.6642 93.2828 91.6734 93.7474 91.7122C93.6926 91.7122 93.8585 91.7487 94.2457 91.8155C94.4581 91.8629 94.6674 91.922 94.8726 91.9925C95.0236 92.065 95.1725 92.1413 95.3174 92.2253C95.3777 92.2574 95.4278 92.2837 95.4711 92.3062C95.5497 92.4031 95.6374 92.493 95.7331 92.575L95.8996 92.752C95.9186 92.7777 95.9369 92.8046 95.9552 92.8309H89.9433C89.9853 92.7456 89.9995 92.693 89.9636 92.7071C90.0354 92.6365 90.1071 92.5673 90.1816 92.4999C90.0313 92.6628 90.734 92.1189 90.8146 92.074C90.9534 92.0105 91.0482 91.9649 91.1098 91.9348H91.1091Z" fill="#002F6F"/>
<path d="M87.1796 88.9197C86.0257 90.1088 85.2433 91.5784 84.9198 93.1644C84.4269 95.7419 86.0896 98.3867 89.0936 98.3867H96.5563C98.7187 98.3867 101.211 96.5366 100.948 94.2851C100.569 91.0276 99.0253 88.3463 95.6057 87.2205C94.1697 86.7603 92.6293 86.6752 91.1465 86.9742C89.6637 87.2732 88.2934 87.9453 87.1796 88.9197C85.4194 90.4285 85.5934 93.2471 87.2128 94.7623C88.0435 95.5169 89.1515 95.9357 90.3023 95.9298C91.4531 95.9239 92.5563 95.494 93.3784 94.7309C93.1712 94.9086 92.1672 95.2056 93.1008 94.9913C92.3263 95.1684 93.834 95.2678 92.937 95.0683C92.6926 95.0138 91.9891 94.3627 92.6445 94.9695C92.5226 94.8811 92.4223 94.7689 92.3504 94.6405C92.2784 94.5121 92.2365 94.3705 92.2274 94.2254L96.6192 90.1238H89.1572L93.331 95.3454C93.373 95.0668 93.4368 94.7915 93.5219 94.5218C93.3228 95.2479 93.9917 94.0663 93.3784 94.7309C94.1751 93.944 94.6179 92.8941 94.6118 91.8037C94.6057 90.7133 94.152 89.6679 93.3466 88.889C91.7339 87.3796 88.7462 87.223 87.1796 88.9197Z" fill="#002F6F"/>
<path d="M123.205 88.0184C123.966 88.3243 124.63 88.8103 125.136 89.4296C125.621 90.0173 125.945 90.7101 126.078 91.4458C126.197 92.2134 126.248 92.9891 126.23 93.7647L126.2 103.659H121.762V93.6634C121.781 93.1581 121.677 92.6553 121.458 92.1944C121.259 91.8314 120.95 91.5332 120.571 91.3382C120.191 91.1431 119.759 91.0602 119.329 91.1C118.813 91.0617 118.297 91.1771 117.853 91.4301C117.409 91.6831 117.059 92.061 116.852 92.5113C116.605 93.0816 116.486 93.6947 116.503 94.3113V103.658H112.14V94.3119C112.181 93.6228 112.078 92.9329 111.836 92.2816C111.648 91.9048 111.34 91.5928 110.956 91.3889C110.572 91.185 110.131 91.0993 109.693 91.1437C108.457 91.1437 107.626 91.523 107.201 92.2816C106.932 92.8916 106.813 93.5513 106.851 94.2112V103.658H102.459V87.9895H106.669V90.2796C107.066 89.6203 107.581 89.0308 108.189 88.5367C109.128 87.9585 110.219 87.6402 111.339 87.6175C112.459 87.5948 113.563 87.8687 114.527 88.4084C115.165 88.9117 115.657 89.5611 115.956 90.295C116.448 89.4453 117.179 88.742 118.069 88.2641C118.993 87.8252 120.014 87.6032 121.048 87.6168C121.787 87.6186 122.52 87.755 123.205 88.0184Z" fill="#003079"/>
<path d="M121.028 91.5956C121.268 91.6871 121.498 91.7999 121.715 91.9323C121.366 91.6715 121.386 91.71 121.777 92.0478C121.557 91.7446 121.586 91.8087 121.863 92.2402C121.691 91.908 121.693 92.0003 121.869 92.5174C121.578 91.3473 121.859 92.958 121.869 93.2486C121.874 93.4411 121.874 93.6335 121.873 93.826C121.869 94.8186 121.866 95.8113 121.863 96.8043C121.857 99.0799 121.85 101.356 121.842 103.632L126.234 99.53H121.796L126.125 103.691V93.7355C126.125 90.1965 123.645 87.1982 119.788 86.9942C118.06 86.8735 116.345 87.3617 114.974 88.3652C113.603 89.3687 112.671 90.8167 112.357 92.4314C112.164 93.6906 112.093 94.9639 112.146 96.2354V103.632L116.538 99.53H112.175L116.504 103.691V96.5247C116.504 95.6491 116.512 94.7728 116.496 93.8946C116.422 90.0047 113.895 87.2322 109.726 87.0096C105.757 86.7973 102.888 89.7006 102.55 93.2551C102.453 94.2686 102.494 95.2956 102.494 96.3117V103.625L106.886 99.5229H102.493L106.822 103.684V88.0193L102.43 92.1209H106.641L102.312 87.9597V90.2497C102.312 94.529 108.117 95.7465 110.448 92.3448C110.774 91.9013 110.81 91.832 110.555 92.137C110.7 91.9618 111.537 91.3486 110.727 91.8836C111.18 91.6514 111.194 91.6353 110.768 91.8355C111.823 91.491 110.196 91.7829 111.428 91.7463C111.978 91.7852 112.045 91.7735 111.631 91.711C111.854 91.7437 112.853 92.1947 112.046 91.7983C111.67 91.5087 111.669 91.5361 112.041 91.8804C111.457 91.2883 112.142 92.2653 112.198 92.3852C113.61 95.3905 118.162 94.7337 119.734 92.3589C120.44 91.2928 119.303 92.6873 120.166 91.8586C119.812 92.0955 119.85 92.0846 120.279 91.8258C119.853 91.9777 119.894 91.9744 120.402 91.8162C121.557 91.4833 119.755 91.7822 121.019 91.7463C121.54 91.7707 121.601 91.7707 121.201 91.7463C121.493 91.8115 121.779 91.8972 122.058 92.0029C124.298 92.7643 126.821 91.1529 127.414 89.1086C128.08 86.8114 126.592 84.7921 124.36 84.0338C122.13 83.2997 119.702 83.3161 117.484 84.0801C115.266 84.8442 113.394 86.3092 112.183 88.2284L119.719 88.2022C118.233 85.041 114.997 83.5777 111.49 83.4847C107.698 83.3834 104.871 85.3309 102.896 88.215L111.031 90.31V88.02C111.028 86.9272 110.574 85.879 109.764 85.1008C108.954 84.3225 107.855 83.8765 106.702 83.8587H102.491C101.338 83.8616 100.233 84.2928 99.4114 85.0596C98.5903 85.8265 98.1193 86.868 98.0996 87.9603V103.629C98.1018 104.722 98.5565 105.77 99.3661 106.548C100.176 107.326 101.275 107.772 102.428 107.79H106.822C107.974 107.788 109.08 107.357 109.901 106.59C110.722 105.823 111.193 104.781 111.211 103.689V94.2795C111.211 94.03 111.286 93.4173 111.182 93.9895C111.064 94.6464 108.937 95.4515 109.97 95.2019C109.332 95.3565 108.932 95.1044 108.372 94.6586C107.776 93.4573 107.584 93.1896 107.794 93.8555C107.738 93.2995 107.73 93.2929 107.771 93.8356C107.788 94.0999 107.78 94.3719 107.78 94.6374V103.626C107.782 104.719 108.236 105.767 109.046 106.546C109.856 107.324 110.955 107.77 112.108 107.788H116.471C117.624 107.786 118.731 107.355 119.552 106.588C120.373 105.821 120.844 104.779 120.863 103.686V94.3436C120.894 93.8305 120.885 93.7999 120.834 94.2519C120.977 93.7931 120.963 93.8033 120.794 94.2827C120.649 94.5475 120.436 94.7735 120.175 94.9398C119.913 95.106 119.612 95.2072 119.298 95.234C118.313 95.2789 117.686 94.2801 117.38 93.5739C117.746 94.4206 117.402 93.5957 117.402 93.6752V103.631C117.404 104.724 117.859 105.772 118.668 106.55C119.478 107.328 120.578 107.774 121.731 107.792H126.169C127.321 107.789 128.427 107.358 129.248 106.591C130.069 105.824 130.541 104.783 130.56 103.691C130.568 101.167 130.576 98.6443 130.584 96.1212C130.587 95.0345 130.605 93.9472 130.575 92.8606C130.477 89.4068 128.866 85.9531 125.387 84.4437C123.228 83.5078 120.702 83.8664 119.429 85.9557C118.325 87.7647 118.862 90.6577 121.028 91.5956Z" fill="#002F6F"/>
<path d="M139.94 88.2784C141.108 88.7786 142.101 89.5842 142.802 90.6006C143.497 91.5728 143.948 92.6825 144.122 93.8452C144.255 94.8787 144.302 95.9203 144.264 96.9608H132.199C132.267 98.5358 132.844 99.64 133.932 100.273C134.652 100.682 135.48 100.887 136.32 100.864C136.997 100.914 137.674 100.769 138.262 100.448C138.851 100.127 139.323 99.6444 139.617 99.0642H144.039C143.839 100.149 143.276 101.143 142.433 101.901C140.949 103.427 138.871 104.19 136.2 104.191C134.075 104.218 132.009 103.534 130.364 102.259C128.679 100.971 127.836 98.8758 127.836 95.973C127.836 93.2535 128.597 91.1683 130.118 89.7173C130.896 88.9897 131.823 88.4211 132.843 88.0467C133.862 87.6724 134.951 87.5001 136.043 87.5407C137.383 87.5215 138.711 87.773 139.94 88.2784ZM133.459 91.8239C132.812 92.4966 132.408 93.3481 132.308 94.2538H139.769C139.765 93.7876 139.66 93.3272 139.462 92.9007C139.263 92.4742 138.975 92.0905 138.615 91.7732C137.898 91.2 136.983 90.8986 136.045 90.9271C135.572 90.8995 135.098 90.9649 134.653 91.1193C134.208 91.2736 133.802 91.5135 133.459 91.8239Z" fill="#003079"/>
<path d="M148.624 96.992C148.672 92.0873 147.146 87.0183 142.118 84.702C141.903 84.6039 141.68 84.5197 141.453 84.4499C141.334 84.3953 141.213 84.3427 141.09 84.2946C136.254 82.3997 129.936 83.4954 126.513 87.3532C123.335 90.9346 122.576 96.6071 124.325 100.956C125.007 102.611 126.089 104.09 127.484 105.276C128.88 106.461 130.549 107.32 132.359 107.782H140.181C144.033 106.699 147.546 104.015 148.243 100.155C148.337 99.6332 148.345 99.1007 148.267 98.5765C148.497 98.0765 148.619 97.5376 148.624 96.992ZM134.29 91.9346C134.603 91.8422 134.921 91.7655 135.242 91.705L135.531 91.6845C135.997 91.664 136.464 91.6732 136.929 91.712C136.873 91.712 137.039 91.7486 137.427 91.8153C137.64 91.8628 137.85 91.9219 138.055 91.9923C138.206 92.0655 138.355 92.1412 138.499 92.2252C138.559 92.2573 138.609 92.2836 138.653 92.306C138.731 92.4029 138.819 92.4929 138.915 92.5748L139.081 92.7519C139.1 92.7775 139.118 92.8045 139.137 92.8308H133.125C133.167 92.7454 133.182 92.6928 133.146 92.707C133.213 92.6364 133.289 92.5678 133.363 92.4998C133.213 92.6627 133.916 92.1187 133.997 92.0738C134.134 92.0097 134.229 91.9654 134.29 91.9346Z" fill="#002F6F"/>
<path d="M130.361 88.9197C129.207 90.1088 128.425 91.5784 128.101 93.1644C127.609 95.7419 129.272 98.3867 132.275 98.3867H139.738C141.9 98.3867 144.392 96.5366 144.13 94.2851C143.751 91.0276 142.207 88.3463 138.787 87.2205C137.351 86.7603 135.811 86.6752 134.328 86.9742C132.845 87.2732 131.475 87.9453 130.361 88.9197C128.601 90.4285 128.775 93.2471 130.394 94.7623C131.225 95.5169 132.333 95.9357 133.484 95.9298C134.635 95.9239 135.738 95.494 136.56 94.7309C136.353 94.9086 135.349 95.2056 136.282 94.9913C135.508 95.1684 137.016 95.2678 136.119 95.0683C135.874 95.0138 135.171 94.3627 135.826 94.9695C135.704 94.8811 135.604 94.7689 135.532 94.6405C135.46 94.5121 135.418 94.3705 135.409 94.2254L139.801 90.1238H132.338L136.512 95.3454C136.554 95.0668 136.618 94.7915 136.703 94.5218C136.504 95.2479 137.177 94.0663 136.56 94.7309C137.357 93.9439 137.799 92.894 137.792 91.8036C137.786 90.7131 137.332 89.6678 136.527 88.889C134.916 87.3796 131.928 87.223 130.361 88.9197Z" fill="#002F6F"/>
<path d="M150.107 86.0872H145.715V82.3025H150.107V86.0872ZM145.715 87.9603H150.107V103.659H145.715V87.9603Z" fill="#003079"/>
<path d="M150.139 81.9577H145.747L150.075 86.119V82.3311L145.684 86.4327H150.076L145.747 82.272V86.0568C145.743 86.5994 145.852 87.1374 146.067 87.6402C146.282 88.143 146.6 88.6006 147.002 88.9871C147.404 89.3735 147.883 89.6811 148.41 89.8924C148.938 90.1037 149.504 90.2144 150.076 90.2183C150.649 90.2223 151.217 90.1193 151.748 89.9152C152.278 89.7112 152.761 89.4102 153.169 89.0293C153.577 88.6484 153.902 88.1951 154.125 87.6953C154.348 87.1955 154.464 86.659 154.469 86.1164V82.3285C154.466 81.236 154.01 80.1882 153.201 79.4102C152.392 78.6321 151.293 78.1859 150.14 78.1672H145.747C144.594 78.1701 143.488 78.6013 142.667 79.3682C141.846 80.1351 141.375 81.1765 141.355 82.2688V86.0536C141.358 87.146 141.814 88.1938 142.623 88.9719C143.432 89.7499 144.531 90.1962 145.684 90.2148H150.077C151.233 90.2227 152.345 89.7951 153.169 89.0259C153.992 88.2568 154.46 87.2092 154.468 86.1135C154.477 85.0179 154.025 83.964 153.213 83.1836C152.402 82.4033 151.296 81.9605 150.14 81.9526L150.139 81.9577Z" fill="#002F6F"/>
<path d="M145.684 92.0925H150.077L145.748 87.9312V103.629L150.14 99.5272H145.747L150.076 103.688V87.9909C150.086 87.4449 149.982 86.9024 149.769 86.3948C149.556 85.8872 149.24 85.4246 148.837 85.0337C148.435 84.6428 147.954 84.3314 147.424 84.1175C146.894 83.9036 146.324 83.7914 145.748 83.7875C145.171 83.7835 144.6 83.8879 144.066 84.0945C143.533 84.3011 143.048 84.6059 142.639 84.9913C142.231 85.3766 141.907 85.8348 141.687 86.3395C141.466 86.8441 141.354 87.3851 141.355 87.9312V103.629C141.358 104.722 141.812 105.77 142.622 106.548C143.432 107.326 144.531 107.772 145.684 107.79H150.077C151.23 107.788 152.337 107.357 153.158 106.59C153.98 105.823 154.45 104.781 154.469 103.688V87.9909C154.467 86.8982 154.012 85.8499 153.203 85.0717C152.393 84.2935 151.294 83.8475 150.14 83.8296H145.748C144.592 83.8217 143.479 84.2494 142.656 85.0186C141.832 85.7878 141.365 86.8355 141.356 87.9312C141.348 89.027 141.799 90.081 142.611 90.8613C143.423 91.6417 144.528 92.0846 145.684 92.0925Z" fill="#002F6F"/>
<path d="M159.548 94.1109C160.139 94.0626 160.72 93.9417 161.278 93.7511C161.545 93.6765 161.779 93.5231 161.947 93.3133C162.115 93.1035 162.208 92.8483 162.212 92.5849C162.241 92.3211 162.188 92.055 162.061 91.8187C161.934 91.5824 161.738 91.3859 161.496 91.2525C160.836 90.9728 160.115 90.8468 159.393 90.885C158.993 90.8455 158.588 90.8895 158.207 91.0138C157.827 91.1381 157.479 91.3398 157.19 91.6047C156.853 92.0243 156.64 92.5214 156.573 93.0448H152.394C152.428 91.8256 152.853 90.6451 153.612 89.6604C154.762 88.2782 156.737 87.5869 159.535 87.5865C161.216 87.5565 162.881 87.9072 164.39 88.6097C165.804 89.2909 166.511 90.5775 166.511 92.4694V99.67C166.511 100.169 166.521 100.774 166.541 101.485C166.529 101.864 166.618 102.24 166.8 102.579C166.964 102.789 167.184 102.953 167.437 103.054V103.659H162.725C162.604 103.371 162.513 103.072 162.455 102.766C162.404 102.488 162.364 102.171 162.333 101.816C161.727 102.434 161.026 102.963 160.254 103.385C159.284 103.902 158.186 104.166 157.072 104.148C155.71 104.196 154.377 103.761 153.334 102.929C152.833 102.494 152.44 101.959 152.185 101.362C151.93 100.766 151.818 100.122 151.859 99.4795C151.798 98.64 151.988 97.8014 152.408 97.06C152.828 96.3186 153.46 95.7046 154.232 95.2887C155.43 94.7271 156.729 94.385 158.06 94.2803L159.548 94.1109ZM162.197 96.027C161.932 96.1848 161.65 96.3174 161.357 96.4228C160.979 96.5474 160.59 96.6414 160.194 96.7038L159.208 96.8764C158.517 96.9617 157.845 97.1516 157.217 97.4389C156.891 97.6087 156.622 97.8623 156.441 98.1705C156.26 98.4787 156.175 98.829 156.194 99.1812C156.167 99.463 156.209 99.747 156.317 100.011C156.426 100.274 156.598 100.51 156.819 100.7C157.254 101.018 157.791 101.184 158.34 101.168C159.276 101.172 160.19 100.9 160.956 100.39C161.753 99.872 162.167 98.9263 162.198 97.5531L162.197 96.027Z" fill="#003079"/>
<path d="M170.87 100.508C170.87 100.238 170.875 99.968 170.874 99.7011C170.87 98.9423 170.874 98.1821 170.874 97.4226C170.983 95.0085 170.895 92.59 170.611 90.1887C169.736 84.8522 162.975 83.1389 158.164 83.5218C155.608 83.6277 153.16 84.5297 151.2 86.0877C149.083 87.8839 148.277 90.419 148.033 93.0157C147.973 93.7569 148.17 94.4965 148.595 95.1216C147.83 96.6038 147.46 98.2407 147.515 99.8897C147.566 101.659 148.195 103.371 149.316 104.787C150.438 106.203 151.996 107.254 153.775 107.795H160.274C160.562 107.707 160.847 107.611 161.127 107.502C161.624 107.694 162.156 107.792 162.693 107.791H167.405C168.559 107.789 169.665 107.358 170.487 106.591C171.308 105.824 171.779 104.782 171.798 103.689C171.878 102.56 171.551 101.438 170.87 100.508ZM156.251 99.857L156.266 99.8641V99.8679L156.25 99.8596L156.251 99.857ZM156.218 99.7152C156.213 99.6973 156.211 99.6838 156.205 99.6639C156.211 99.6851 156.215 99.6992 156.22 99.7165L156.218 99.7152ZM156.172 99.0706C156.213 99.0244 156.246 98.9865 156.273 98.9525L156.29 98.9435C156.256 98.975 156.218 99.016 156.172 99.0673L156.172 99.0706ZM156.262 99.916V99.9032C156.285 99.9372 156.313 99.9757 156.347 100.021C156.312 99.9763 156.287 99.9436 156.262 99.9135L156.262 99.916ZM157.408 99.9917C157.029 99.9725 156.285 99.9449 156.805 100.031C156.696 100.011 156.586 99.9972 156.476 99.9892C156.421 99.9526 156.364 99.9188 156.305 99.8878V99.884C156.502 99.968 156.404 99.8461 156.299 99.7659C156.291 99.6498 156.271 99.4894 156.256 99.3535C156.27 99.2893 156.289 99.1706 156.308 99.0488C156.34 99.0853 156.451 98.9128 156.459 98.8467L156.524 98.8076L156.601 98.7825C156.99 98.6648 157.386 98.568 157.786 98.4926C158.04 98.4387 159.569 98.236 158.096 98.4092L159.518 98.2437C159.71 98.2212 159.897 98.1892 160.083 98.1526C160.177 98.1481 160.271 98.1417 160.366 98.1334C159.946 98.3309 159.564 98.5939 159.236 98.9115C159.229 98.9185 158.472 99.5594 158.626 99.4792C158.309 99.6806 157.98 99.8633 157.639 100.026C158.196 99.7473 157.446 99.9257 157.407 99.9892L157.408 99.9917Z" fill="#002F6F"/>
<path d="M159.989 92.4619C159.544 92.6865 159.624 92.6762 160.228 92.4311C159.964 92.5234 159.693 92.595 159.416 92.6454C159.105 92.7147 158.784 92.7609 158.468 92.8167C157.267 93.0045 156.101 93.3605 155.01 93.8732C150.77 95.9169 150.983 101.911 154.639 104.275C158.002 106.451 163.142 105.012 165.297 101.934C166.528 100.176 166.558 98.0806 166.558 96.0548C166.566 94.959 166.115 93.905 165.303 93.1245C164.491 92.3441 163.385 91.9012 162.229 91.8933C161.072 91.8854 159.96 92.3131 159.136 93.0823C158.312 93.8516 157.845 94.8994 157.837 95.9952C157.837 96.6258 157.849 97.2563 157.818 97.8856C157.862 96.9952 157.791 97.8304 157.711 98.0684C157.884 97.5478 158.252 97.1055 158.746 96.8259C157.841 97.4872 159.435 96.722 158.386 97.0344C158.904 97.0147 158.898 97.0147 158.369 97.0344C158.683 97.0503 158.988 97.1383 159.258 97.291C159.62 97.4571 159.927 97.7129 160.148 98.0313C160.369 98.3496 160.494 98.7187 160.511 99.0992C160.528 99.4797 160.436 99.8574 160.245 100.192C160.053 100.527 159.77 100.807 159.424 101.001C158.51 101.584 158.985 101.163 159.499 101.031C159.837 100.944 160.187 100.892 160.532 100.832C161.89 100.637 163.201 100.217 164.404 99.59C164.903 99.3179 165.341 98.9548 165.691 98.5217C166.041 98.0887 166.298 97.5941 166.445 97.0667C166.592 96.5393 166.628 95.9894 166.55 95.4488C166.472 94.9082 166.282 94.3876 165.99 93.9171C165.699 93.4465 165.312 93.0354 164.852 92.7073C164.392 92.3792 163.867 92.1407 163.31 92.0056C162.752 91.8705 162.171 91.8415 161.601 91.9201C161.031 91.9987 160.484 92.1836 159.989 92.4639V92.4619Z" fill="#002F6F"/>
<path d="M60.5619 88.4964V88.8928H54.5879V88.4964H54.967C55.2531 88.5093 55.5353 88.4297 55.7673 88.2706C55.9354 88.1384 56.0541 87.9585 56.1058 87.7574C56.1912 87.3119 56.2223 86.8586 56.1985 86.4064V76.8439C56.2213 76.3777 56.1902 75.9105 56.1058 75.4507C56.0367 75.2553 55.9057 75.0848 55.7307 74.9625C55.5086 74.8136 55.24 74.7401 54.9684 74.754H54.5892V74.3569H60.5632V74.754H60.1841C59.8982 74.7406 59.616 74.8198 59.3839 74.9785C59.215 75.1112 59.0942 75.2907 59.0386 75.4917C58.9528 75.9369 58.9216 76.39 58.9458 76.842V86.4039C58.9216 86.8705 58.9541 87.3382 59.0426 87.7978C59.114 87.9928 59.2459 88.1627 59.4211 88.2853C59.6433 88.4345 59.9121 88.5082 60.1841 88.4944L60.5619 88.4964Z" fill="#003079"/>
<path d="M53.7279 88.4961V88.8925H47.7539V88.4961H48.133C48.4193 88.5091 48.7017 88.4295 48.9339 88.2703C49.1024 88.1385 49.2212 87.9584 49.2724 87.7571C49.3583 87.3117 49.3894 86.8584 49.3652 86.4062V76.8437C49.3885 76.3775 49.3573 75.9102 49.2724 75.4504C49.2035 75.2551 49.0728 75.0847 48.8981 74.9622C48.6758 74.8133 48.4069 74.7398 48.1351 74.7538H47.7559V74.3567H53.7299V74.7538H53.3508C53.0649 74.7404 52.7826 74.8195 52.5505 74.9783C52.3816 75.1109 52.2609 75.2904 52.2053 75.4915C52.1191 75.9366 52.0878 76.3898 52.1118 76.8418V86.4036C52.0881 86.8701 52.121 87.3376 52.21 87.7969C52.2818 87.9919 52.4139 88.1618 52.5891 88.2844C52.811 88.4337 53.0797 88.5075 53.3515 88.4936L53.7279 88.4961Z" fill="#003079"/>
<path d="M40.138 88.4961V88.8925H34.1641V88.4961H34.5432C34.8295 88.5092 35.1119 88.4295 35.3441 88.2703C35.5126 88.1385 35.6314 87.9584 35.6826 87.7571C35.7685 87.3117 35.7996 86.8584 35.7754 86.4062V76.8437C35.7986 76.3775 35.7675 75.9102 35.6826 75.4504C35.6136 75.255 35.4827 75.0845 35.3075 74.9622C35.0855 74.8133 34.8169 74.7398 34.5452 74.7538H34.1661V74.3567H40.1401V74.7538H39.7609C39.475 74.7404 39.1928 74.8195 38.9607 74.9783C38.7919 75.111 38.6712 75.2905 38.6154 75.4915C38.5296 75.9367 38.4985 76.3898 38.5227 76.8418V86.4036C38.4982 86.8703 38.5307 87.338 38.6195 87.7975C38.6912 87.9925 38.8234 88.1624 38.9986 88.2851C39.2206 88.4342 39.4892 88.5079 39.7609 88.4942L40.138 88.4961Z" fill="#003079"/>
<path d="M33.5052 88.4961V88.8925H27.5312V88.4961H27.9104C28.1964 88.5091 28.4787 88.4295 28.7106 88.2703C28.8788 88.1382 28.9975 87.9582 29.0491 87.7571C29.1348 87.3117 29.166 86.8584 29.1419 86.4062V76.8437C29.165 76.3775 29.1339 75.9102 29.0491 75.4504C28.9801 75.255 28.8491 75.0845 28.6741 74.9622C28.452 74.8133 28.1834 74.7398 27.9117 74.7538H27.5326V74.3567H33.5052V74.7538H33.1261C32.8402 74.7404 32.558 74.8196 32.3259 74.9783C32.1571 75.111 32.0363 75.2905 31.9806 75.4915C31.8948 75.9367 31.8637 76.3898 31.8878 76.8418V86.4036C31.8628 86.8699 31.8943 87.3374 31.9819 87.7969C32.0537 87.9919 32.1858 88.1618 32.3611 88.2844C32.583 88.4336 32.8516 88.5074 33.1234 88.4936L33.5052 88.4961Z" fill="#003079"/>
<path d="M46.9037 88.4961V88.8925H40.9297V88.4961H41.3088C41.5949 88.5091 41.8771 88.4294 42.109 88.2703C42.2774 88.1384 42.3962 87.9584 42.4476 87.7571C42.5333 87.3117 42.5645 86.8584 42.5403 86.4062V76.8437C42.5635 76.3775 42.5324 75.9102 42.4476 75.4504C42.3785 75.255 42.2475 75.0846 42.0725 74.9622C41.8504 74.8133 41.5818 74.7399 41.3102 74.7538H40.931V74.3567H46.905V74.7538H46.5259C46.24 74.7405 45.9578 74.8196 45.7256 74.9783C45.5568 75.111 45.4361 75.2905 45.3804 75.4915C45.2947 75.9367 45.2635 76.3898 45.2876 76.8418V86.4036C45.2632 86.8703 45.2957 87.338 45.3844 87.7975C45.4562 87.9925 45.5883 88.1624 45.7636 88.2851C45.9855 88.4343 46.2542 88.508 46.5259 88.4942L46.9037 88.4961Z" fill="#003079"/>
<path d="M21.9272 82.1553H27.2242L35.1507 103.383H30.0731L28.5945 99.021H20.3457L18.8272 103.383H13.9297L21.9272 82.1553ZM21.6185 95.3614H27.3562L24.5256 87.0087L21.6185 95.3614Z" fill="white"/>
<path d="M35.3553 103.52H29.9669L28.4883 99.1575H20.4495L18.9309 103.52H13.7227L21.8238 82.0166H27.3259L35.3553 103.52ZM30.1788 103.244H34.9443L27.118 82.2918H22.0269L14.1329 103.244H18.7231L20.2416 98.8823H28.7043L30.1788 103.244ZM27.5547 95.4985H21.4169L24.5271 86.5621L27.5547 95.4985ZM21.8191 95.2233H27.1566L24.5244 87.4525L21.8191 95.2233Z" fill="#003079"/>
<path d="M45.5176 93.3161C45.4436 92.749 45.2295 92.2064 44.8927 91.7323C44.6266 91.4086 44.2801 91.1523 43.8839 90.9864C43.4878 90.8205 43.0545 90.7502 42.6227 90.7817C41.9508 90.7551 41.2891 90.9439 40.7446 91.3177C40.2 91.6914 39.8043 92.2283 39.6215 92.8414C39.3039 93.7781 39.1594 94.7596 39.1943 95.7428C39.1602 96.6838 39.3049 97.6229 39.6215 98.5153C39.8067 99.1053 40.1958 99.6192 40.7264 99.9744C41.2569 100.33 41.8981 100.505 42.5469 100.474C42.9469 100.513 43.3512 100.463 43.7273 100.328C44.1034 100.193 44.4411 99.9767 44.7133 99.6962C45.1681 99.107 45.4376 98.4077 45.4905 97.6794H49.9135C49.7978 98.9643 49.3022 100.192 48.4836 101.222C47.1242 103.018 45.111 103.917 42.444 103.917C39.777 103.917 37.8136 103.168 36.554 101.671C35.2353 99.9934 34.569 97.9354 34.6678 95.8455C34.6678 93.1513 35.3624 91.0558 36.7516 89.559C37.4753 88.8041 38.367 88.211 39.3622 87.8227C40.3575 87.4344 41.4314 87.2606 42.5063 87.3138C44.3118 87.2405 46.0964 87.7039 47.6103 88.6391C48.9336 89.5226 49.7171 91.0836 49.9608 93.3219L45.5176 93.3161Z" fill="white"/>
<path d="M42.4384 104.053C39.7364 104.053 37.7169 103.279 36.4367 101.754C35.1002 100.05 34.423 97.9626 34.5187 95.8418C34.5187 93.1264 35.2316 90.9813 36.6391 89.4649C37.377 88.6967 38.2851 88.0926 39.2984 87.6962C40.3117 87.2997 41.405 87.1205 42.5 87.1716C44.3347 87.0995 46.1477 87.5704 47.6873 88.5187C49.0413 89.4225 49.8537 91.0301 50.0995 93.2977L50.1157 93.4497H45.3888L45.3726 93.3304C45.3008 92.7846 45.0949 92.2623 44.7714 91.8056C44.5194 91.4996 44.1909 91.2579 43.8156 91.1025C43.4403 90.947 43.03 90.8827 42.6218 90.9153C41.9782 90.8867 41.3435 91.0669 40.8224 91.4261C40.3013 91.7853 39.9249 92.302 39.7554 92.891C39.4449 93.8125 39.3036 94.7776 39.3377 95.7443C39.3044 96.6683 39.4456 97.5904 39.7547 98.4674C39.9277 99.0323 40.2979 99.5249 40.8047 99.8646C41.3114 100.204 41.9249 100.371 42.5447 100.338C42.922 100.375 43.3033 100.329 43.6587 100.203C44.0141 100.077 44.334 99.8754 44.5933 99.613C45.0295 99.0437 45.2876 98.3694 45.338 97.6674L45.3516 97.5443H50.0622L50.05 97.6925C49.9306 99.0025 49.4259 100.255 48.5931 101.307C47.2147 103.128 45.143 104.053 42.4384 104.053ZM42.4993 87.4474C41.4458 87.3972 40.3937 87.5683 39.4182 87.9486C38.4428 88.3289 37.5682 88.9089 36.8571 89.6471C35.4983 91.1122 34.8091 93.1963 34.8091 95.8424C34.7143 97.9007 35.3692 99.9273 36.6641 101.582C37.8868 103.039 39.8298 103.777 42.4391 103.777C45.0483 103.777 47.0366 102.89 48.3609 101.142C49.1287 100.171 49.6081 99.0227 49.7494 97.8169H45.6149C45.5433 98.5271 45.2695 99.2055 44.8228 99.7798C44.5378 100.077 44.1835 100.307 43.7881 100.452C43.3928 100.597 42.9673 100.652 42.5453 100.614C41.867 100.645 41.197 100.461 40.6422 100.089C40.0873 99.7182 39.6796 99.1817 39.4839 98.5655C39.1617 97.6569 39.014 96.701 39.0479 95.743C39.0136 94.743 39.161 93.7448 39.4839 92.7922C39.6773 92.1527 40.0917 91.5932 40.6607 91.2034C41.2297 90.8137 41.9203 90.6162 42.6218 90.6426C43.0765 90.6114 43.5323 90.6869 43.9487 90.8626C44.3651 91.0383 44.7293 91.3087 45.009 91.6498C45.3355 92.1088 45.5516 92.6302 45.642 93.1771H49.7921C49.5355 91.0724 48.7712 89.5848 47.5194 88.7471C46.0289 87.8308 44.2744 87.3766 42.4993 87.4474Z" fill="#003079"/>
<path d="M58.6283 93.8352C59.2189 93.7866 59.8004 93.6656 60.3581 93.4753C60.6247 93.4007 60.8591 93.2473 61.027 93.0375C61.195 92.8277 61.2878 92.5724 61.2917 92.3091C61.32 92.0454 61.2675 91.7795 61.1405 91.5433C61.0134 91.3072 60.8172 91.1107 60.5754 90.9774C59.9153 90.6975 59.194 90.5715 58.4719 90.6098C58.0716 90.5705 57.6669 90.6145 57.2864 90.7388C56.9059 90.8631 56.5586 91.0648 56.2689 91.3296C55.932 91.7491 55.7193 92.2463 55.6528 92.7697H51.473C51.5071 91.5505 51.9321 90.37 52.6916 89.3852C53.8416 88.0031 55.816 87.3118 58.6148 87.3113C60.2957 87.2813 61.96 87.6321 63.469 88.3345C64.8835 89.0162 65.5907 90.3028 65.5907 92.1943V99.3948C65.5907 99.8943 65.6009 100.499 65.6212 101.21C65.6095 101.589 65.6984 101.965 65.8798 102.304C66.044 102.514 66.2645 102.678 66.5182 102.779V103.384H61.8055C61.6834 103.096 61.5927 102.797 61.5347 102.491C61.4842 102.212 61.4438 101.896 61.4136 101.541C60.8072 102.159 60.1064 102.688 59.3344 103.11C58.3639 103.627 57.2658 103.891 56.1525 103.874C54.79 103.922 53.4574 103.487 52.4147 102.655C51.9133 102.22 51.5206 101.685 51.2653 101.088C51.01 100.491 50.8984 99.8478 50.9388 99.205C50.878 98.3656 51.0684 97.5271 51.4882 96.7857C51.908 96.0444 52.54 95.4303 53.3117 95.0142C54.5095 94.4527 55.8085 94.1106 57.1402 94.0058L58.6283 93.8352ZM61.2768 95.7506C61.0113 95.9082 60.7301 96.0408 60.4373 96.1464C60.0584 96.271 59.6691 96.365 59.2735 96.4274L58.2878 96.5999C57.5966 96.6849 56.9243 96.8746 56.2967 97.1619C55.9703 97.3315 55.701 97.585 55.52 97.8932C55.3389 98.2015 55.2533 98.5518 55.273 98.9041C55.2454 99.1859 55.2875 99.4699 55.396 99.7336C55.5045 99.9973 55.6763 100.233 55.8979 100.423C56.3324 100.741 56.8697 100.907 57.4185 100.891C58.3542 100.894 59.2678 100.623 60.0338 100.113C60.8313 99.595 61.2454 98.6494 61.2761 97.2767L61.2768 95.7506Z" fill="white"/>
<path d="M56.1579 104.011C54.7609 104.057 53.3952 103.612 52.3247 102.76C51.8085 102.312 51.4039 101.761 51.1401 101.146C50.8763 100.531 50.7599 99.8689 50.7993 99.2065C50.7401 98.3431 50.9379 97.4813 51.3704 96.7193C51.8029 95.9573 52.4525 95.3257 53.2454 94.8964C54.4602 94.3265 55.7773 93.9783 57.1281 93.8701L58.6141 93.6969C59.1918 93.65 59.7607 93.5325 60.3066 93.3473C60.547 93.2832 60.7592 93.1475 60.9117 92.9602C61.0643 92.7729 61.1491 92.544 61.1536 92.3074C61.1819 92.0685 61.1364 91.8269 61.0227 91.612C60.9091 91.397 60.7321 91.2179 60.5131 91.0963C59.8748 90.8294 59.1788 90.7094 58.4821 90.7461C58.1028 90.7082 57.7193 90.7486 57.3581 90.8645C56.9968 90.9805 56.6664 91.1692 56.3894 91.4177C56.0709 91.8184 55.8698 92.2918 55.8065 92.7898L55.7869 92.9059H51.3288L51.3383 92.7597C51.3764 91.5129 51.8126 90.3065 52.5894 89.2996C53.764 87.8883 55.795 87.1724 58.6277 87.1724C60.3291 87.1446 62.0132 87.4999 63.5414 88.209C65.0017 88.9147 65.7424 90.2521 65.7424 92.1913V99.3919C65.7424 99.8878 65.7525 100.497 65.7728 101.203C65.7569 101.556 65.8366 101.907 66.0044 102.222C66.1545 102.412 66.3549 102.56 66.5853 102.652L66.6699 102.689V103.519H61.7135L61.6769 103.432C61.5505 103.135 61.4561 102.826 61.3953 102.511C61.3594 102.313 61.3276 102.091 61.3012 101.85C60.737 102.385 60.1013 102.848 59.4103 103.227C58.4181 103.755 57.296 104.026 56.1579 104.011ZM58.4753 90.4715C59.2215 90.4337 59.9665 90.5657 60.6479 90.8564C60.9131 91.0012 61.1289 91.2152 61.2695 91.4729C61.41 91.7306 61.4694 92.0212 61.4406 92.31C61.4375 92.6006 61.3366 92.8827 61.1526 93.1153C60.9686 93.3478 60.7112 93.5188 60.4177 93.6032C59.8479 93.7994 59.2533 93.9236 58.6493 93.9727L57.1633 94.1459C55.8507 94.249 54.5703 94.5852 53.3889 95.137C52.6411 95.5429 52.0288 96.1398 51.6218 96.8596C51.2148 97.5794 51.0295 98.393 51.0871 99.2078C51.0487 99.8307 51.1566 100.454 51.4032 101.033C51.6498 101.611 52.0288 102.131 52.5129 102.554C53.5309 103.361 54.8285 103.783 56.1552 103.737C57.2422 103.752 58.3142 103.495 59.2627 102.992C60.0214 102.576 60.7104 102.056 61.3073 101.448L61.5314 101.218L61.5584 101.53C61.5889 101.881 61.6261 102.198 61.6783 102.468C61.7292 102.734 61.8062 102.995 61.9085 103.247H66.3767V102.866C66.1349 102.755 65.9257 102.589 65.7674 102.384C65.5683 102.025 65.4704 101.623 65.4831 101.218C65.4628 100.505 65.4526 99.8935 65.4526 99.3951V92.1932C65.4526 90.3663 64.7654 89.109 63.4101 88.456C61.9206 87.7657 60.2794 87.4203 58.6216 87.4482C55.883 87.4482 53.9285 88.1288 52.8128 89.4695C52.1007 90.391 51.6906 91.4906 51.6334 92.6314H55.535C55.6167 92.1254 55.8321 91.6472 56.1613 91.2413C56.4645 90.9608 56.8288 90.7465 57.2287 90.6134C57.6285 90.4803 58.0542 90.4317 58.476 90.4709L58.4753 90.4715ZM57.4219 101.03C56.8404 101.045 56.2715 100.869 55.8113 100.532C55.5729 100.329 55.3876 100.077 55.2701 99.7942C55.1525 99.5118 55.1061 99.2074 55.1343 98.905C55.1146 98.5288 55.2069 98.1549 55.4007 97.8259C55.5945 97.497 55.882 97.2263 56.2303 97.0447C56.8721 96.7485 57.5607 96.5534 58.2688 96.4674L59.2532 96.2955C59.6404 96.2343 60.0216 96.1425 60.3926 96.0209C60.6759 95.9179 60.948 95.789 61.205 95.6361L61.4271 95.5078V97.2821C61.3953 98.6985 60.9532 99.6902 60.1211 100.233C59.3296 100.755 58.3872 101.034 57.4226 101.03L57.4219 101.03ZM61.1346 95.9921C60.9279 96.1016 60.7129 96.1965 60.4915 96.2763C60.1046 96.4032 59.7071 96.4994 59.3033 96.5636L58.3176 96.7362C57.643 96.8192 56.9866 97.0035 56.3732 97.2821C56.069 97.4397 55.8183 97.676 55.6505 97.9635C55.4827 98.251 55.4046 98.5777 55.4254 98.9057C55.399 99.1666 55.4367 99.4297 55.5355 99.6745C55.6343 99.9193 55.7914 100.139 55.9947 100.317C56.4042 100.615 56.9094 100.77 57.4253 100.756C58.3315 100.757 59.2162 100.494 59.9587 100.002C60.7122 99.5125 61.1096 98.5952 61.138 97.2757L61.1346 95.9921Z" fill="#003079"/>
<path d="M77.0769 87.9373C77.8556 88.3538 78.5096 88.9511 78.9773 89.6732V82.1846H83.3698V103.383H79.1601V101.209C78.6456 102.042 77.9193 102.74 77.0472 103.24C76.1385 103.689 75.1224 103.907 74.0981 103.874C73.1584 103.88 72.2295 103.683 71.3825 103.298C70.5355 102.912 69.7929 102.348 69.2114 101.648C67.8426 100.036 67.138 98.0069 67.2284 95.9391C67.2284 93.2603 67.8795 91.1528 69.1816 89.6167C69.7987 88.8702 70.5932 88.2723 71.5004 87.8719C72.4076 87.4715 73.4019 87.2798 74.4021 87.3125C75.336 87.2957 76.2583 87.5111 77.0769 87.9373ZM78.1412 99.1208C78.8196 98.1233 79.1541 96.9508 79.0985 95.7653C79.0985 93.8447 78.5867 92.4717 77.563 91.6464C76.9538 91.1531 76.1762 90.8866 75.3749 90.8965C74.8234 90.8619 74.2723 90.9703 73.7808 91.2101C73.2894 91.45 72.8762 91.8121 72.5856 92.2577C71.9989 93.3152 71.6936 94.4924 71.6962 95.6872C71.6988 96.8819 72.0092 98.0579 72.6005 99.1131C72.8963 99.54 73.3058 99.8853 73.7877 100.114C74.2695 100.343 74.8065 100.447 75.3445 100.416C75.8885 100.444 76.4309 100.339 76.9203 100.112C77.4098 99.8858 77.83 99.5445 78.1412 99.1208Z" fill="white"/>
<path d="M74.0985 104.009C73.1379 104.015 72.1886 103.813 71.3226 103.419C70.4567 103.025 69.6968 102.449 69.1008 101.735C67.7126 100.096 66.9961 98.0366 67.0833 95.9364C67.0833 93.2377 67.7508 91.0817 69.0683 89.5281C69.7002 88.7667 70.5123 88.1567 71.4389 87.7475C72.3655 87.3384 73.3807 87.1414 74.4025 87.1726C75.3613 87.1563 76.3081 87.3774 77.1491 87.8141C77.8084 88.1674 78.3819 88.6482 78.8322 89.2253V82.0459H83.5151V103.52H79.0143V101.66C78.5224 102.351 77.875 102.93 77.1186 103.356C76.188 103.817 75.1477 104.042 74.0985 104.009ZM74.4025 87.4478C73.4243 87.4175 72.4524 87.6056 71.5652 87.997C70.678 88.3884 69.9003 88.972 69.2951 89.7006C68.0203 91.2036 67.3744 93.3025 67.3744 95.9364C67.2878 97.9714 67.9797 99.9676 69.3228 101.558C69.8921 102.24 70.6181 102.791 71.4455 103.168C72.273 103.545 73.1803 103.739 74.0985 103.734C75.0975 103.767 76.0886 103.555 76.9758 103.118C77.8257 102.629 78.5339 101.947 79.0366 101.134L79.3074 100.73V103.245H83.2267V82.323H79.1253V90.1548L78.8545 89.7468C78.3989 89.0451 77.763 88.4642 77.0063 88.0584C76.2092 87.6436 75.3117 87.4331 74.4025 87.4478ZM75.3449 100.553C74.7828 100.584 74.2222 100.474 73.7192 100.234C73.2162 99.9943 72.7885 99.6337 72.4791 99.1881C71.8726 98.1108 71.554 96.9092 71.551 95.6883C71.5481 94.4673 71.8609 93.2643 72.4622 92.1844C72.7661 91.7197 73.1973 91.3416 73.7099 91.0905C74.2225 90.8394 74.7974 90.7247 75.3733 90.7584C76.2086 90.7493 77.019 91.0271 77.6548 91.5404C78.7083 92.3891 79.2424 93.8106 79.2424 95.7645C79.2961 96.9781 78.9523 98.1778 78.2581 99.199C77.9334 99.6401 77.4957 99.9958 76.9861 100.233C76.4765 100.47 75.9118 100.58 75.3449 100.553ZM75.3753 91.0336C74.8482 90.9974 74.3207 91.0992 73.8505 91.3278C73.3803 91.5564 72.9855 91.9032 72.7093 92.3301C72.1372 93.3652 71.8394 94.5167 71.8417 95.6852C71.8439 96.8537 72.1461 98.0041 72.7221 99.0373C73.0037 99.4462 73.395 99.7766 73.856 99.9946C74.3169 100.213 74.8308 100.31 75.3449 100.278C75.8656 100.307 76.3855 100.209 76.8544 99.992C77.3233 99.7753 77.7253 99.4479 78.0218 99.0412C78.6814 98.0661 79.0068 96.9216 78.9534 95.7645C78.9534 93.8952 78.4537 92.5449 77.4687 91.7508C76.885 91.2803 76.1416 91.0256 75.3753 91.0336Z" fill="#003079"/>
<path d="M97.0625 88.0035C98.2305 88.5039 99.2237 89.3094 99.9256 90.3256C100.62 91.298 101.072 92.4077 101.246 93.5702C101.378 94.6038 101.426 95.6454 101.388 96.6859H89.3216C89.3888 98.2605 89.9663 99.3647 91.0541 99.9985C91.7744 100.407 92.6032 100.612 93.4426 100.589C94.1197 100.64 94.797 100.495 95.3855 100.173C95.974 99.8521 96.4461 99.3696 96.7396 98.7893H101.163C100.963 99.8734 100.401 100.868 99.5587 101.626C98.0751 103.152 95.9974 103.916 93.3254 103.916C91.2009 103.943 89.1346 103.259 87.4896 101.984C85.8043 100.696 84.9614 98.6009 84.9609 95.698C84.9609 92.9786 85.7219 90.8934 87.2438 89.4423C88.0217 88.7148 88.9488 88.1463 89.9679 87.7719C90.987 87.3976 92.0762 87.2253 93.1684 87.2658C94.507 87.247 95.8345 87.4985 97.0625 88.0035ZM90.5815 91.547C89.9339 92.2198 89.5306 93.0713 89.4306 93.9769H96.8913C96.8876 93.511 96.7836 93.0507 96.5857 92.6242C96.3878 92.1977 96.1001 91.8139 95.7403 91.4963C95.0239 90.9233 94.1089 90.6219 93.1718 90.6502C92.6981 90.6222 92.2234 90.6875 91.7776 90.8418C91.3318 90.9961 90.9246 91.2362 90.5815 91.547Z" fill="white"/>
<path d="M93.3219 104.054C91.1646 104.077 89.0671 103.383 87.3946 102.092C85.6811 100.782 84.8125 98.6314 84.8125 95.6992C84.8125 92.955 85.5951 90.8176 87.1374 89.3486C87.9295 88.6099 88.8725 88.0322 89.9086 87.651C90.9447 87.2698 92.0521 87.0931 93.1628 87.1317C94.5221 87.1131 95.8701 87.3678 97.1179 87.879C98.3103 88.3918 99.3245 89.2149 100.043 90.2525C100.748 91.242 101.208 92.3705 101.386 93.5528C101.519 94.594 101.568 95.6434 101.531 96.6916V96.8269H89.4764C89.4605 97.4271 89.6038 98.0215 89.8931 98.5556C90.1824 99.0897 90.6085 99.5466 91.1324 99.8842C91.8305 100.279 92.6327 100.476 93.4451 100.454C94.0957 100.505 94.7471 100.367 95.3129 100.058C95.8788 99.7498 96.3323 99.2858 96.6135 98.7276L96.6548 98.6545H101.326L101.307 98.8085C101.101 99.9218 100.525 100.944 99.6614 101.723C98.1591 103.267 96.0259 104.054 93.3219 104.054ZM93.1655 87.4056C92.0927 87.3671 91.0229 87.5366 90.0217 87.9038C89.0205 88.2711 88.109 88.8282 87.3432 89.5411C85.8538 90.9587 85.1029 93.0313 85.1029 95.6992C85.1029 98.5435 85.935 100.623 87.5768 101.877C89.1975 103.128 91.2305 103.801 93.3212 103.778C95.9379 103.778 97.9987 103.022 99.4468 101.533C100.222 100.827 100.759 99.9209 100.992 98.9271H96.8241C96.6021 99.3273 96.3013 99.6836 95.9379 99.9766C95.2249 100.498 94.3407 100.764 93.441 100.728C92.5745 100.75 91.7193 100.538 90.9753 100.116C89.8495 99.4602 89.2435 98.3087 89.1745 96.6929L89.1684 96.5492H101.243C101.274 95.5614 101.227 94.5729 101.1 93.592C100.928 92.4501 100.485 91.3602 99.8036 90.4045C99.1156 89.4099 98.1436 88.6208 97.0008 88.1292C95.7915 87.634 94.4854 87.3872 93.1682 87.4049L93.1655 87.4056ZM97.0455 94.1161H89.2598L89.2842 93.9589C89.3906 93.0247 89.8088 92.1469 90.4778 91.4533C90.834 91.13 91.2568 90.8799 91.7198 90.7184C92.1827 90.5569 92.6758 90.4876 93.1682 90.5148C94.1401 90.4877 95.0885 90.8008 95.8322 91.3943C96.2065 91.7239 96.5062 92.1222 96.7132 92.5649C96.9201 93.0077 97.0299 93.4856 97.036 93.9698L97.0455 94.1161ZM89.5983 93.8409H96.7333C96.6955 92.9876 96.3036 92.1829 95.6427 91.6021C94.9516 91.0522 94.0709 90.7629 93.1689 90.7894C92.7154 90.7633 92.2612 90.8257 91.8342 90.9728C91.4073 91.1199 91.0168 91.3485 90.6869 91.6444C90.0965 92.2545 89.7166 93.0208 89.5983 93.8409Z" fill="#003079"/>
<path d="M123.505 87.7432C124.266 88.0493 124.931 88.5352 125.436 89.1545C125.921 89.7424 126.245 90.4351 126.379 91.1706C126.497 91.9383 126.548 92.7139 126.531 93.4896L126.5 103.383H122.064V93.3882C122.083 92.8832 121.98 92.3807 121.761 91.9199C121.562 91.557 121.253 91.2588 120.873 91.0638C120.494 90.8687 120.062 90.7858 119.632 90.8255C119.116 90.7872 118.599 90.9025 118.155 91.1555C117.711 91.4085 117.361 91.7865 117.154 92.2368C116.907 92.8071 116.788 93.4202 116.805 94.0367V103.383H112.443V94.0367C112.484 93.3476 112.38 92.6577 112.139 92.0065C111.951 91.6297 111.643 91.3177 111.259 91.1138C110.875 90.9099 110.434 90.8242 109.996 90.8685C108.76 90.8685 107.929 91.2478 107.504 92.0065C107.235 92.6165 107.116 93.2761 107.154 93.936V103.383H102.762V87.7144H106.967V90.0044C107.364 89.345 107.878 88.7554 108.487 88.2615C109.426 87.6834 110.517 87.365 111.636 87.3424C112.756 87.3197 113.86 87.5936 114.825 88.1332C115.463 88.6364 115.955 89.2858 116.253 90.0198C116.745 89.1704 117.476 88.4672 118.366 87.9889C119.289 87.5503 120.311 87.3283 121.344 87.3417C122.085 87.343 122.819 87.4794 123.505 87.7432Z" fill="white"/>
<path d="M126.645 103.521H121.919V93.3854C121.937 92.9016 121.839 92.4201 121.631 91.978C121.444 91.6375 121.154 91.3582 120.798 91.1765C120.441 90.9949 120.035 90.9194 119.633 90.96C119.144 90.9205 118.654 91.0279 118.233 91.2668C117.812 91.5057 117.481 91.864 117.287 92.291C117.048 92.8434 116.933 93.4366 116.948 94.0333V103.521H112.295V94.0365C112.334 93.3671 112.236 92.6969 112.004 92.0633C111.828 91.71 111.539 91.4181 111.178 91.2285C110.817 91.0388 110.403 90.9611 109.993 91.0062C108.804 91.0062 108.03 91.3545 107.629 92.071C107.373 92.6616 107.259 93.2989 107.296 93.9364V103.521H102.613V87.5762H107.114V89.5385C107.464 89.0156 107.898 88.5477 108.4 88.1516C109.364 87.5555 110.485 87.2271 111.636 87.2038C112.787 87.1804 113.921 87.463 114.911 88.0195C115.498 88.4794 115.966 89.0607 116.278 89.7187C116.773 88.9471 117.469 88.3092 118.3 87.8668C119.245 87.4184 120.289 87.1908 121.346 87.2028C122.105 87.2053 122.856 87.3455 123.559 87.616C124.342 87.9312 125.026 88.4312 125.548 89.0683C126.047 89.6742 126.381 90.3877 126.52 91.1454C126.64 91.9217 126.692 92.7061 126.675 93.4906L126.645 103.521ZM122.207 103.246H126.355L126.385 93.4893C126.402 92.7221 126.352 91.9548 126.236 91.1954C126.106 90.4828 125.792 89.8117 125.323 89.2415C124.832 88.6413 124.188 88.1697 123.452 87.8713C122.783 87.6142 122.069 87.4808 121.348 87.4781C120.338 87.4661 119.34 87.683 118.436 88.1105C117.572 88.5774 116.862 89.262 116.384 90.0882L116.234 90.332L116.123 90.0702C115.833 89.3582 115.356 88.7279 114.737 88.2388C113.798 87.7191 112.726 87.4563 111.639 87.4797C110.552 87.503 109.493 87.8116 108.58 88.371C107.985 88.8551 107.483 89.4323 107.094 90.0773L106.824 90.4859V87.8495H102.904V103.245H107.006V93.9358C106.968 93.2538 107.093 92.5725 107.371 91.9427C107.824 91.137 108.705 90.7297 109.993 90.7297C110.459 90.6851 110.928 90.7783 111.335 90.9966C111.743 91.2149 112.069 91.5474 112.268 91.9485C112.52 92.6172 112.628 93.327 112.586 94.0359V103.245H116.657V94.0365C116.641 93.4008 116.764 92.7688 117.019 92.1807C117.238 91.7061 117.606 91.3074 118.074 91.0398C118.541 90.7723 119.085 90.6491 119.63 90.6874C120.087 90.6471 120.545 90.737 120.948 90.9455C121.35 91.1539 121.677 91.4715 121.888 91.8574C122.116 92.3377 122.226 92.8614 122.207 93.388V103.246Z" fill="#003079"/>
<path d="M140.247 88.0029C141.415 88.5032 142.408 89.3087 143.11 90.325C143.805 91.2973 144.256 92.407 144.43 93.5696C144.563 94.6031 144.61 95.6447 144.573 96.6852H132.507C132.574 98.2598 133.152 99.364 134.24 99.9978C134.96 100.407 135.789 100.612 136.628 100.589C137.305 100.639 137.983 100.494 138.571 100.173C139.16 99.8515 139.632 99.369 139.925 98.7886H144.348C144.148 99.8733 143.585 100.868 142.742 101.626C141.258 103.152 139.18 103.916 136.508 103.916C134.384 103.943 132.317 103.259 130.673 101.984C128.987 100.696 128.145 98.6009 128.145 95.698C128.145 92.9786 128.906 90.8933 130.427 89.4423C131.205 88.7148 132.132 88.1463 133.151 87.7719C134.171 87.3976 135.26 87.2253 136.352 87.2658C137.691 87.2467 139.018 87.498 140.247 88.0029ZM133.768 91.5464C133.12 92.2193 132.717 93.0707 132.617 93.9763H140.08C140.077 93.5104 139.973 93.05 139.775 92.6235C139.577 92.197 139.289 91.8132 138.929 91.4957C138.213 90.9226 137.297 90.6212 136.36 90.6496C135.886 90.6212 135.411 90.6863 134.965 90.8407C134.519 90.995 134.111 91.2353 133.768 91.5464Z" fill="white"/>
<path d="M136.505 104.054C134.348 104.077 132.25 103.383 130.578 102.092C128.865 100.782 127.996 98.6314 127.996 95.6992C127.996 92.9544 128.779 90.8176 130.32 89.3486C131.112 88.6099 132.055 88.0322 133.092 87.651C134.128 87.2698 135.235 87.0931 136.346 87.1317C137.705 87.1132 139.053 87.3679 140.301 87.879C141.493 88.3917 142.507 89.2148 143.225 90.2525C143.931 91.242 144.39 92.3705 144.569 93.5528C144.702 94.594 144.75 95.6434 144.713 96.6916V96.8269H132.656C132.64 97.4271 132.784 98.0213 133.073 98.5554C133.362 99.0894 133.788 99.5463 134.312 99.8842C135.01 100.279 135.812 100.476 136.625 100.454C137.275 100.505 137.927 100.367 138.492 100.058C139.058 99.7498 139.512 99.2858 139.793 98.7276L139.834 98.6545H144.506L144.486 98.8085C144.281 99.9218 143.704 100.944 142.841 101.723C141.339 103.267 139.206 104.054 136.505 104.054ZM136.348 87.4056C135.276 87.3671 134.206 87.5367 133.205 87.9039C132.203 88.2711 131.292 88.8282 130.526 89.5411C129.04 90.9587 128.287 93.0307 128.287 95.6992C128.287 98.5442 129.119 100.623 130.76 101.877C132.381 103.128 134.414 103.801 136.505 103.778C139.121 103.778 141.182 103.022 142.63 101.533C143.405 100.827 143.943 99.9209 144.176 98.9271H140.008C139.786 99.3274 139.485 99.6836 139.122 99.9766C138.409 100.498 137.525 100.764 136.625 100.728C135.759 100.75 134.904 100.538 134.16 100.116C133.034 99.4602 132.428 98.3087 132.359 96.6929L132.353 96.5492H144.427C144.459 95.5615 144.411 94.5729 144.285 93.592C144.113 92.4501 143.67 91.3602 142.989 90.4045C142.301 89.4098 141.329 88.6208 140.186 88.1292C138.975 87.6334 137.667 87.3872 136.348 87.4056ZM140.228 94.1167H132.443L132.466 93.9595C132.573 93.0254 132.991 92.1477 133.66 91.4539C134.016 91.1307 134.439 90.8805 134.902 90.719C135.365 90.5575 135.858 90.4883 136.35 90.5155C137.322 90.4883 138.271 90.8014 139.014 91.3949C139.389 91.7245 139.689 92.1227 139.896 92.5655C140.103 93.0082 140.212 93.4863 140.218 93.9704L140.228 94.1167ZM132.781 93.8415H139.915C139.877 92.9882 139.485 92.1836 138.824 91.6028C138.133 91.0528 137.252 90.7634 136.35 90.79C135.896 90.7639 135.442 90.8264 135.015 90.9735C134.588 91.1205 134.198 91.3491 133.868 91.6451C133.278 92.2552 132.898 93.0212 132.78 93.8409L132.781 93.8415Z" fill="#003079"/>
<path d="M150.422 85.8147H146.029V82.03H150.422V85.8147ZM146.029 87.6872H150.422V103.385H146.029V87.6872Z" fill="white"/>
<path d="M150.564 103.518H145.881V87.5457H150.564V103.518ZM146.172 103.243H150.274V87.8209H146.172V103.243ZM150.564 85.9484H145.881V81.886H150.564V85.9484ZM146.172 85.6733H150.274V82.1612H146.172V85.6733Z" fill="#003079"/>
<path d="M159.852 93.8352C160.442 93.7866 161.024 93.6656 161.581 93.4753C161.848 93.4006 162.082 93.2472 162.25 93.0374C162.418 92.8276 162.511 92.5724 162.515 92.3091C162.543 92.0454 162.491 91.7797 162.364 91.5435C162.237 91.3073 162.041 91.1108 161.799 90.9774C161.139 90.6974 160.418 90.5714 159.696 90.6098C159.295 90.5705 158.891 90.6145 158.51 90.7388C158.13 90.8631 157.783 91.0648 157.493 91.3296C157.156 91.7494 156.944 92.2464 156.877 92.7697H152.697C152.731 91.5505 153.156 90.37 153.916 89.3852C155.066 88.0031 157.04 87.3118 159.839 87.3114C161.52 87.2813 163.184 87.6321 164.693 88.3345C166.108 89.0162 166.815 90.3028 166.815 92.1943V99.3948C166.815 99.8943 166.825 100.499 166.845 101.21C166.833 101.589 166.922 101.965 167.104 102.304C167.268 102.513 167.488 102.678 167.742 102.779V103.384H163.03C162.908 103.096 162.817 102.797 162.759 102.491C162.708 102.212 162.668 101.896 162.637 101.541C162.031 102.159 161.33 102.688 160.558 103.11C159.588 103.628 158.49 103.891 157.376 103.874C156.014 103.921 154.682 103.487 153.639 102.655C153.137 102.22 152.745 101.685 152.49 101.088C152.234 100.491 152.123 99.8478 152.163 99.205C152.103 98.3656 152.293 97.5271 152.713 96.7857C153.133 96.0444 153.765 95.4303 154.536 95.0142C155.734 94.4528 157.033 94.1107 158.364 94.0058L159.852 93.8352ZM162.5 95.7506C162.235 95.9084 161.953 96.041 161.661 96.1464C161.283 96.2718 160.894 96.3666 160.499 96.4299L159.514 96.6025C158.823 96.6876 158.15 96.8773 157.523 97.1644C157.196 97.3342 156.927 97.5878 156.746 97.896C156.565 98.2042 156.48 98.5545 156.5 98.9067C156.472 99.1885 156.514 99.4726 156.623 99.7363C156.731 100 156.903 100.236 157.125 100.426C157.56 100.744 158.097 100.91 158.646 100.894C159.582 100.897 160.495 100.625 161.261 100.116C162.059 99.5975 162.473 98.652 162.503 97.2793L162.5 95.7506Z" fill="white"/>
<path d="M157.377 104.011C155.98 104.057 154.614 103.612 153.543 102.76C153.027 102.312 152.623 101.761 152.359 101.146C152.095 100.531 151.979 99.869 152.018 99.2066C151.959 98.3432 152.157 97.4814 152.589 96.7194C153.022 95.9573 153.671 95.3257 154.464 94.8965C155.679 94.3266 156.996 93.9784 158.347 93.8701L159.833 93.6969C160.411 93.65 160.979 93.5325 161.525 93.3473C161.766 93.2832 161.978 93.1474 162.13 92.9601C162.283 92.7729 162.368 92.544 162.372 92.3075C162.401 92.0686 162.355 91.827 162.242 91.612C162.128 91.3971 161.951 91.218 161.732 91.0964C161.094 90.8292 160.398 90.7092 159.701 90.7462C159.322 90.7083 158.938 90.7488 158.577 90.8647C158.216 90.9807 157.886 91.1693 157.609 91.4178C157.29 91.8185 157.089 92.2918 157.025 92.7899L157.006 92.906H152.543L152.552 92.7597C152.591 91.5131 153.027 90.3068 153.803 89.2996C154.979 87.8884 157.009 87.1725 159.842 87.1725C161.545 87.144 163.232 87.4998 164.762 88.2104C166.223 88.916 166.962 90.2528 166.962 92.1927V99.3932C166.962 99.8891 166.973 100.499 166.994 101.204C166.978 101.557 167.058 101.908 167.225 102.223C167.376 102.413 167.576 102.561 167.806 102.653L167.891 102.69V103.521H162.934L162.898 103.433C162.772 103.136 162.677 102.828 162.616 102.513C162.58 102.315 162.548 102.093 162.522 101.851C161.958 102.387 161.322 102.849 160.631 103.228C159.638 103.757 158.515 104.027 157.377 104.011ZM159.695 90.4716C160.441 90.4337 161.186 90.5657 161.867 90.8565C162.133 91.0013 162.348 91.2153 162.489 91.473C162.629 91.7307 162.689 92.0213 162.66 92.3101C162.657 92.6007 162.556 92.8828 162.372 93.1153C162.188 93.3479 161.931 93.5188 161.637 93.6033C161.067 93.7995 160.473 93.9238 159.869 93.9728L158.383 94.146C157.071 94.2496 155.791 94.5856 154.609 95.1364C153.861 95.5426 153.249 96.1396 152.842 96.8594C152.435 97.5793 152.25 98.393 152.307 99.2079C152.269 99.8308 152.377 100.454 152.623 101.033C152.87 101.611 153.249 102.131 153.733 102.554C154.751 103.361 156.049 103.782 157.375 103.737C158.462 103.752 159.534 103.495 160.482 102.992C161.241 102.577 161.931 102.056 162.527 101.448L162.752 101.218L162.779 101.53C162.809 101.883 162.846 102.199 162.899 102.468C162.95 102.734 163.027 102.995 163.129 103.247H167.598V102.866C167.356 102.755 167.147 102.589 166.988 102.384C166.789 102.025 166.692 101.623 166.704 101.218C166.684 100.506 166.673 99.8936 166.673 99.3952V92.1933C166.673 90.3664 165.986 89.1091 164.631 88.4561C163.141 87.7656 161.5 87.4202 159.842 87.4483C157.104 87.4483 155.149 88.1289 154.033 89.4696C153.321 90.3912 152.911 91.4908 152.854 92.6315H156.755C156.837 92.1254 157.053 91.6473 157.382 91.2414C157.685 90.9606 158.05 90.7462 158.45 90.6131C158.85 90.48 159.276 90.4315 159.697 90.471L159.695 90.4716ZM158.641 101.03C158.059 101.045 157.49 100.869 157.03 100.532C156.792 100.329 156.606 100.077 156.489 99.7942C156.371 99.5119 156.325 99.2074 156.353 98.9051C156.333 98.5288 156.426 98.1549 156.619 97.8259C156.813 97.497 157.101 97.2263 157.449 97.0448C158.091 96.7485 158.779 96.5535 159.488 96.4675L160.473 96.2956C160.86 96.2344 161.241 96.1425 161.611 96.021C161.895 95.9181 162.167 95.7892 162.424 95.6361L162.647 95.5078V97.2822C162.615 98.6985 162.173 99.6903 161.341 100.233C160.55 100.755 159.608 101.033 158.643 101.03L158.641 101.03ZM162.353 95.9921C162.147 96.1014 161.932 96.1964 161.71 96.2763C161.323 96.4033 160.925 96.4995 160.521 96.5637L159.536 96.7363C158.861 96.8193 158.204 97.0036 157.591 97.2822C157.286 97.4397 157.036 97.6761 156.868 97.9635C156.7 98.251 156.622 98.5778 156.643 98.9057C156.617 99.1667 156.654 99.4298 156.753 99.6746C156.852 99.9194 157.009 100.139 157.213 100.317C157.622 100.615 158.127 100.77 158.643 100.756C159.55 100.758 160.434 100.494 161.177 100.002C161.93 99.5126 162.328 98.5953 162.356 97.2757L162.353 95.9921Z" fill="#003079"/>
<path d="M43.9149 62.2053L53.5996 67.1986L63.285 72.1925H24.5449L34.2303 67.1979L43.9149 62.2053Z" fill="#003079"/>
<path d="M43.8965 66.8328L50.412 70.1928L56.9283 73.5522H30.8633L37.3795 70.1928L43.8965 66.8328Z" fill="white"/>
<path d="M63.1825 71.5598H24.6191V73.4688H63.1825V71.5598Z" fill="#003079"/>
</g>
<defs>
<clipPath id="clip0_597_5548">
<rect width="163" height="46" fill="white" transform="translate(9 62)"/>
</clipPath>
</defs>
</svg>
