<svg width="123" height="38" viewBox="0 0 123 38" fill="none" xmlns="http://www.w3.org/2000/svg">
<path d="M4.87109 30.3809V35.9945H91.8775C91.8959 35.9945 91.9138 35.9916 91.9326 35.9916H98.6684C98.6867 35.9916 98.7046 35.9916 98.723 35.9945H118.172V30.3809H4.87109Z" fill="#002E67"/>
<path d="M10.8219 17.084H14.7089L20.5256 32.9155H16.7995L15.715 29.6623H9.66137L8.54654 32.9155H4.95312L10.8219 17.084ZM10.5954 26.933H14.8063L12.7292 20.7036L10.5954 26.933Z" fill="#003079"/>
<path d="M10.8002 20.165H14.6872L11.6204 17.8811C13.5589 23.1582 15.4978 28.4354 17.437 33.7126L20.55 29.8341H16.8264L19.8932 32.118L18.8082 28.8649C18.6193 28.2176 18.2192 27.646 17.6669 27.2347C17.1146 26.8234 16.4395 26.5942 15.7414 26.5809H9.68532C8.98258 26.586 8.30032 26.8095 7.74012 27.2181C7.17991 27.6267 6.77172 28.1986 6.5763 28.8486L5.46196 32.1018L8.57098 29.8341H4.97757L8.04039 33.7288L13.9092 17.8988C14.4964 16.3148 13.2529 14.5332 11.6676 14.1141C9.89001 13.6409 8.32208 14.6934 7.73485 16.2722L1.86855 32.1018C1.16805 33.9915 2.97891 35.996 4.93137 35.996H8.52478C9.22752 35.991 9.90978 35.7675 10.47 35.3589C11.0302 34.9503 11.4384 34.3784 11.6338 33.7284L12.7486 30.4752L9.63961 32.7428H15.6937L12.6269 30.4589L13.7119 33.7121C13.9008 34.3594 14.301 34.9309 14.8533 35.3422C15.4056 35.7535 16.0807 35.9828 16.7787 35.996H20.5048C22.4582 35.996 24.3238 34.0403 23.6178 32.1176C21.6792 26.8407 19.7404 21.5637 17.8012 16.2865C17.3237 14.9867 16.2402 14.0026 14.7344 14.0026H10.8464C10.4235 13.9955 10.0033 14.0693 9.61019 14.2195C9.21707 14.3698 8.85879 14.5936 8.55606 14.8781C8.25333 15.1625 8.01216 15.5019 7.8465 15.8766C7.68083 16.2514 7.59396 16.6541 7.59091 17.0613C7.58785 17.4686 7.66868 17.8724 7.82871 18.2495C7.98873 18.6265 8.22479 18.9692 8.52322 19.2578C8.82166 19.5464 9.17655 19.7752 9.56737 19.9309C9.9582 20.0866 10.3772 20.1662 10.8002 20.165Z" fill="#002F6F"/>
<path d="M10.5718 30.0134H14.7822C16.7829 30.0134 18.5396 28.0672 17.8952 26.1354L15.8186 19.9056C15.6215 19.2652 15.2152 18.7032 14.6601 18.3029C14.1049 17.9026 13.4305 17.6854 12.7369 17.6836C12.0434 17.6818 11.3678 17.8954 10.8103 18.2928C10.2529 18.6901 9.84344 19.25 9.64275 19.8893L7.51094 26.1186C6.96446 27.7151 8.13692 29.4766 9.75254 29.9033C10.5705 30.1066 11.4384 29.9949 12.1722 29.5919C12.906 29.189 13.4479 28.5266 13.6828 27.7452L15.8146 21.5149L9.63877 21.4987L11.7159 27.7285L14.8289 23.85H10.618C10.1978 23.8471 9.78112 23.9239 9.39175 24.0761C9.00239 24.2282 8.64795 24.4527 8.34869 24.7368C8.04943 25.0208 7.81119 25.3589 7.64759 25.7316C7.48399 26.1043 7.39822 26.5044 7.39519 26.909C7.39216 27.3136 7.47191 27.7149 7.62991 28.0898C7.78791 28.4647 8.02105 28.8061 8.31602 29.0942C8.61099 29.3824 8.96202 29.6118 9.34907 29.7694C9.73611 29.9269 10.1516 30.0095 10.5718 30.0124V30.0134Z" fill="#002F6F"/>
<path d="M28.1335 25.4082C28.0791 24.9853 27.9222 24.5807 27.6754 24.227C27.4801 23.9855 27.2258 23.7944 26.9351 23.6707C26.6444 23.547 26.3265 23.4945 26.0096 23.518C25.5166 23.4981 25.0309 23.6389 24.6313 23.9176C24.2316 24.1964 23.9413 24.5968 23.8073 25.0541C23.5741 25.7526 23.468 26.4847 23.4938 27.218C23.4686 27.9197 23.5748 28.6201 23.8073 29.2857C23.943 29.7258 24.2285 30.1091 24.6179 30.3741C25.0072 30.6391 25.4778 30.7704 25.954 30.7467C26.2475 30.7759 26.5441 30.7387 26.8201 30.638C27.0961 30.5374 27.3439 30.376 27.5437 30.1669C27.8773 29.7275 28.075 29.2062 28.1141 28.6633H31.3597C31.2746 29.6214 30.911 30.5372 30.3105 31.3055C29.3129 32.6451 27.8354 33.3148 25.8779 33.3148C23.9205 33.3148 22.4798 32.7567 21.5557 31.6404C20.5877 30.3892 20.0985 28.8542 20.1711 27.2955C20.1711 25.2862 20.681 23.7234 21.7008 22.6071C22.2315 22.0444 22.8855 21.6023 23.6154 21.3127C24.3453 21.0231 25.1328 20.8933 25.9212 20.9327C27.2463 20.8779 28.5561 21.2235 29.6671 21.9211C30.6382 22.5803 31.2132 23.7444 31.392 25.4134L28.1335 25.4082Z" fill="#003079"/>
<path d="M34.5885 25.4302C34.3213 23.3223 33.7668 21.0925 31.9142 19.7271C29.9313 18.2804 27.4442 17.6282 24.9733 17.9067C22.7666 18.0583 20.7104 19.0399 19.2491 20.6394C17.6921 22.4382 17.082 24.6131 16.9742 26.9209C16.8478 29.0528 17.4214 31.169 18.6137 32.9694C19.661 34.4629 21.236 35.5392 23.0457 35.9982H28.7322C29.5139 35.7718 30.2522 35.4243 30.9181 34.9696C31.9586 34.2362 32.8221 33.2948 33.4494 32.2099C34.0767 31.125 34.4529 29.9223 34.5523 28.6843C34.6082 28.1146 34.4554 27.5439 34.1205 27.0711C34.4859 26.6006 34.6531 26.0144 34.5885 25.4302Z" fill="#002F6F"/>
<path d="M37.7549 25.795C38.1883 25.7589 38.615 25.6686 39.0242 25.5266C39.2199 25.471 39.392 25.3566 39.5153 25.2001C39.6387 25.0436 39.7068 24.8533 39.7098 24.6568C39.7306 24.46 39.6921 24.2616 39.5987 24.0854C39.5054 23.9091 39.3613 23.7625 39.1837 23.6632C38.6994 23.4544 38.1703 23.3604 37.6406 23.389C37.3468 23.3597 37.0499 23.3925 36.7706 23.4852C36.4914 23.5779 36.2366 23.7283 36.024 23.9258C35.7769 24.2388 35.6209 24.6095 35.5719 24.9998H32.5046C32.5296 24.0906 32.8415 23.2101 33.3989 22.4758C34.2428 21.445 35.6915 20.9294 37.7449 20.9291C38.9786 20.9066 40.2001 21.1682 41.3075 21.6921C42.3452 22.2002 42.8642 23.1597 42.8645 24.5707V29.9409C42.8645 30.3134 42.872 30.7645 42.8869 31.2943C42.8785 31.5772 42.9435 31.8578 43.0762 32.1104C43.1968 32.2666 43.3585 32.389 43.5447 32.4649V32.9161H40.0874C39.9975 32.7013 39.9309 32.4781 39.8887 32.2501C39.8516 32.0422 39.8219 31.8058 39.7997 31.5411C39.3546 32.0023 38.8403 32.3969 38.274 32.7118C37.5618 33.0972 36.756 33.2935 35.939 33.2806C34.9393 33.3161 33.9615 32.9921 33.1962 32.3716C32.8283 32.0473 32.5403 31.6481 32.353 31.203C32.1657 30.7579 32.0839 30.2781 32.1136 29.7987C32.0689 29.1728 32.2087 28.5474 32.5167 27.9945C32.8248 27.4416 33.2886 26.9836 33.8549 26.6733C34.7337 26.2546 35.6867 25.9994 36.6639 25.9213L37.7549 25.795ZM39.6984 27.224C39.5036 27.3416 39.2972 27.4404 39.0823 27.5191C38.8045 27.612 38.5189 27.6821 38.2288 27.7287L37.505 27.8574C36.9979 27.9211 36.5048 28.0627 36.0444 28.2769C35.8048 28.4035 35.6073 28.5925 35.4744 28.8224C35.3415 29.0523 35.2787 29.3136 35.2932 29.5763C35.2729 29.7865 35.3038 29.9983 35.3834 30.1949C35.463 30.3916 35.5891 30.5677 35.7517 30.7092C36.0703 30.9464 36.4645 31.0699 36.8671 31.0584C37.5537 31.0607 38.2242 30.858 38.7862 30.4781C39.3718 30.0915 39.6759 29.3862 39.6984 28.3621V27.224Z" fill="#003079"/>
<path d="M46.0643 30.5659C46.0643 30.3645 46.0682 30.1631 46.0672 29.9641C46.0643 29.3981 46.0672 28.8312 46.0672 28.2648C46.1472 26.4643 46.0827 24.6607 45.8745 22.8698C45.2316 18.8899 40.271 17.6121 36.7402 17.8977C34.8646 17.9766 33.0685 18.6492 31.6305 19.8113C30.076 21.1509 29.4848 23.041 29.3054 24.9781C29.2611 25.5312 29.4061 26.083 29.7183 26.5492C29.1571 27.6545 28.8851 28.8751 28.9259 30.1047C28.9627 31.4243 29.4242 32.7002 30.2467 33.7562C31.0693 34.8121 32.2122 35.5959 33.5174 35.9992H38.2932C38.5033 35.9337 38.7125 35.8629 38.9172 35.7815C39.2821 35.9249 39.6727 35.998 40.0668 35.9968H43.5246C44.3709 35.9953 45.1827 35.6739 45.7854 35.1018C46.3881 34.5298 46.7336 33.7527 46.7474 32.9379C46.8051 32.0955 46.5643 31.2593 46.0643 30.5659ZM35.3367 30.0803L35.3471 30.0856V30.0885L35.3362 30.0823L35.3367 30.0803ZM35.3118 29.9746C35.3084 29.9612 35.3064 29.9512 35.3024 29.9363C35.3069 29.9521 35.3099 29.9626 35.3138 29.9756L35.3118 29.9746ZM35.2781 29.4938C35.3084 29.4594 35.3322 29.4307 35.3526 29.4058L35.365 29.3986C35.3407 29.422 35.3118 29.4527 35.2781 29.4914V29.4938ZM35.3446 30.1243V30.1148C35.3615 30.1406 35.3819 30.1688 35.4067 30.2028C35.3814 30.1693 35.363 30.1454 35.3446 30.1224V30.1243ZM36.1847 30.1808C35.9075 30.1665 35.3615 30.1459 35.7426 30.21C35.6629 30.1953 35.5825 30.1849 35.5016 30.1789C35.4611 30.1516 35.4192 30.1264 35.3759 30.1033V30.1004C35.52 30.1626 35.4485 30.0722 35.3724 30.0129C35.3655 29.9258 35.3516 29.8062 35.3402 29.7048C35.3506 29.657 35.364 29.5684 35.3779 29.4775C35.4018 29.5048 35.4832 29.3756 35.4892 29.3264L35.5354 29.2977L35.5925 29.279C35.8779 29.1913 36.1682 29.1191 36.462 29.0628C36.6488 29.0226 37.77 28.8714 36.6895 29.0006L37.7328 28.8771C37.8729 28.8604 38.011 28.8365 38.1471 28.8092C38.2167 28.8059 38.2857 28.8011 38.3553 28.7949C38.0469 28.9421 37.7664 29.1383 37.5256 29.3752C37.5206 29.38 36.9657 29.8584 37.0785 29.799C36.8461 29.949 36.6044 30.0851 36.3546 30.2066C36.764 29.999 36.2135 30.1315 36.1847 30.1789V30.1808Z" fill="#002F6F"/>
<path d="M38.0793 24.5652C37.7528 24.7333 37.8114 24.7256 38.2552 24.5422C38.0613 24.611 37.862 24.6645 37.659 24.702C37.43 24.7537 37.1945 24.7881 36.9635 24.8297C36.0819 24.9698 35.2268 25.2354 34.4263 25.6177C31.3148 27.1419 31.4713 31.6121 34.1546 33.3755C36.6227 34.9983 40.3935 33.9243 41.9753 31.6294C42.879 30.3185 42.8999 28.7556 42.8999 27.2447C42.9029 26.8401 42.8231 26.4389 42.6651 26.0639C42.5071 25.689 42.274 25.3477 41.979 25.0595C41.6841 24.7713 41.333 24.5419 40.946 24.3844C40.5589 24.2268 40.1435 24.1442 39.7233 24.1413C39.3031 24.1384 38.8864 24.2152 38.497 24.3673C38.1077 24.5195 37.7532 24.744 37.454 25.028C37.1547 25.3121 36.9165 25.6501 36.7529 26.0228C36.5893 26.3955 36.5035 26.7956 36.5005 27.2003C36.5005 27.6705 36.5099 28.1408 36.4871 28.6101C36.5189 27.9461 36.4677 28.5685 36.4091 28.7465C36.5352 28.3582 36.8055 28.0283 37.1682 27.8198C36.5035 28.313 37.6744 27.7423 36.9039 27.9753C37.2844 27.9606 37.2805 27.9606 36.892 27.9753C37.1223 27.9871 37.3462 28.0528 37.5443 28.1666C37.8097 28.2906 38.0353 28.4814 38.1971 28.7188C38.3589 28.9563 38.4509 29.2315 38.4634 29.5153C38.4758 29.7991 38.4082 30.0808 38.2677 30.3306C38.1272 30.5803 37.9191 30.7887 37.6655 30.9337C36.9953 31.3681 37.3436 31.0543 37.7202 30.9562C37.9686 30.8912 38.2249 30.8524 38.4783 30.8074C39.4748 30.6625 40.4369 30.349 41.32 29.8813C41.6863 29.6783 42.0072 29.4075 42.2642 29.0845C42.5212 28.7615 42.7093 28.3927 42.8175 27.9994C42.9257 27.606 42.9519 27.1959 42.8946 26.7928C42.8374 26.3896 42.6978 26.0013 42.4838 25.6504C42.2699 25.2995 41.986 24.9929 41.6483 24.7482C41.3107 24.5035 40.926 24.3256 40.5166 24.2249C40.1072 24.1241 39.6811 24.1024 39.263 24.1611C38.8448 24.2197 38.4429 24.3576 38.0803 24.5666L38.0793 24.5652Z" fill="#002F6F"/>
<path d="M51.2963 21.3978C51.8675 21.7083 52.3473 22.1539 52.6903 22.6924V17.1074H55.9136V32.9174H52.8239V31.2956C52.4466 31.9173 51.9135 32.438 51.2734 32.8102C50.6067 33.1451 49.8613 33.3078 49.1098 33.2824C48.4202 33.2877 47.7385 33.1408 47.1169 32.8532C46.4953 32.5655 45.9504 32.1446 45.5238 31.6228C44.519 30.4202 44.0017 28.9072 44.0682 27.365C44.0682 25.3671 44.546 23.7954 45.5015 22.6498C45.9545 22.093 46.5376 21.6472 47.2034 21.3485C47.8692 21.0499 48.5988 20.907 49.3329 20.9313C50.0184 20.9188 50.6954 21.0797 51.2963 21.3978ZM52.0772 29.7383C52.5748 28.9943 52.8203 28.1199 52.7797 27.2358C52.7797 25.8034 52.4043 24.7795 51.6535 24.1639C51.2062 23.7962 50.6353 23.5976 50.0473 23.6052C49.6425 23.5794 49.2381 23.6602 48.8775 23.8391C48.5169 24.0179 48.2137 24.288 48.0004 24.6203C47.57 25.409 47.346 26.2869 47.3479 27.1778C47.3498 28.0687 47.5776 28.9457 48.0114 29.7326C48.2283 30.0511 48.5288 30.3087 48.8824 30.4794C49.236 30.6501 49.6301 30.7279 50.0249 30.7047C50.4242 30.7253 50.8222 30.6473 51.1814 30.4782C51.5406 30.3091 51.8489 30.0544 52.0772 29.7383Z" fill="#003079"/>
<path d="M55.9369 14.0254H52.7136C51.8675 14.0275 51.056 14.3491 50.4534 14.921C49.8508 15.493 49.5052 16.2697 49.4908 17.0843V17.8847C47.3153 17.8306 45.2066 18.6108 43.6285 20.0538C41.37 22.0823 40.6476 25.4947 40.9288 28.3437C41.2592 31.6748 43.1326 34.6395 46.4434 35.8996C46.5368 35.9351 46.6316 35.9685 46.7265 35.9996H51.6703C51.7821 35.9661 51.8919 35.9303 52.0002 35.8901C52.2611 35.9599 52.5306 35.9958 52.8015 35.9968H55.8916C56.7379 35.9952 57.5498 35.6739 58.1525 35.1018C58.7552 34.5297 59.1006 33.7527 59.1144 32.9378V17.1288C59.1122 16.3139 58.7781 15.5323 58.184 14.952C57.5898 14.3718 56.783 14.039 55.9369 14.0254ZM52.7141 28.3011C52.1827 28.323 51.6644 28.4662 51.2019 28.7189C50.7393 28.9716 50.3458 29.3266 50.0537 29.7545C50 29.832 49.9632 29.8875 49.9324 29.9344C49.8703 29.9817 49.8117 30.0332 49.7571 30.0884L49.6845 30.1334L49.6224 30.1525L49.4237 30.1937C49.2193 30.2041 49.0145 30.2041 48.8102 30.1937C49.3412 30.2099 48.4455 29.9698 48.4624 30.0449C48.3402 29.9722 48.3133 29.9655 48.3774 30.0253C48.2468 29.9157 48.1196 29.8019 48.0004 29.6803C47.9532 29.6282 47.9159 29.5875 47.8831 29.5521C47.7837 29.4086 47.6928 29.2651 47.6089 29.1139C47.5776 29.0508 47.5532 29.0039 47.5329 28.9637C47.4797 28.8106 47.4305 28.6561 47.3898 28.4987C47.3525 28.3552 47.3217 28.2116 47.2944 28.0681C47.2979 27.9561 47.2909 27.844 47.2735 27.7332C47.2537 27.3907 47.2735 27.0458 47.2869 26.7032C47.2969 26.5372 47.3143 26.3717 47.3322 26.2061C47.3297 26.2736 47.3505 26.1837 47.3962 25.9311C47.4161 25.8392 47.6273 25.2527 47.6407 25.1599C47.74 24.9905 47.8935 24.747 47.9263 24.67C48.0812 24.541 48.2254 24.4005 48.3576 24.2499C48.4261 24.2093 48.4962 24.1715 48.5672 24.1341L48.6666 24.1016C48.7749 24.0715 48.8852 24.0461 48.995 24.0236C49.0989 24.0333 49.2037 24.0308 49.307 24.016L49.5315 24.0246L49.695 24.0724C50.0215 24.2654 50.0634 24.2917 49.8207 24.1514L49.9334 24.2648C50.2425 24.7004 50.6567 25.0575 51.1404 25.3052C51.6242 25.5529 52.1632 25.6839 52.7111 25.6871L52.7141 28.3011Z" fill="#002F6F"/>
<path d="M54.8441 31.2771C56.3772 28.9683 56.4622 25.2014 54.7532 22.9442C52.6989 20.2293 48.3284 19.5667 45.8762 22.2386C43.7066 24.6029 43.5998 28.6392 45.2482 31.2905C47.1113 34.2878 52.0769 34.6715 54.3478 31.9029C55.4263 30.5882 55.6683 28.8248 54.3234 27.546C53.1867 26.4648 50.882 26.2486 49.7985 27.5695C49.5335 27.8352 49.5458 27.8678 49.8353 27.6675L50.114 27.591C49.7546 27.6806 49.7313 27.6908 50.0439 27.6216C50.2923 27.6101 50.4657 27.8393 50.6321 27.9656L50.7668 28.1704C50.5922 27.8581 50.5795 27.8723 50.7285 28.2129C50.7086 28.1651 50.5025 27.2729 50.576 27.8474C50.5414 27.4962 50.5339 27.143 50.5536 26.7906C50.5432 27.1695 50.6858 26.2572 50.6843 26.261C50.5392 26.7471 51.1215 25.8123 50.5974 26.3835C50.4415 26.5379 50.242 26.6449 50.0235 26.6911C50.5636 26.4998 50.0235 26.6758 49.7826 26.6366L49.5635 26.5189C49.8904 26.7071 49.8954 26.7055 49.5784 26.5141C48.9937 25.9879 49.6842 26.871 49.4035 26.1883C49.4284 26.2486 49.6172 27.1169 49.5441 26.5289C49.577 26.8669 49.5847 27.2066 49.567 27.5456C49.5431 28.4579 49.6981 27.1466 49.4726 27.9503C49.6281 27.3958 49.3896 28.0651 49.3027 28.1957C48.8881 28.9027 48.7801 29.7387 49.0021 30.5219C49.2242 31.3051 49.7584 31.9723 50.4886 32.3783C51.2187 32.7842 52.0858 32.8962 52.9013 32.6898C53.7167 32.4835 54.4145 31.9754 54.8431 31.2762L54.8441 31.2771Z" fill="#002F6F"/>
<path d="M65.9591 21.4451C66.8163 21.818 67.5453 22.4188 68.0601 23.177C68.57 23.9021 68.9013 24.7297 69.0288 25.5967C69.126 26.3675 69.1609 27.1444 69.1332 27.9204H60.2791C60.3287 29.095 60.7527 29.9185 61.5509 30.3909C62.0794 30.6957 62.6874 30.8486 63.3031 30.8315C63.8 30.869 64.2971 30.7608 64.729 30.5212C65.1609 30.2816 65.5075 29.9218 65.7231 29.4891H68.9682C68.8216 30.2978 68.4084 31.0396 67.7898 31.6046C66.7008 32.7429 65.1761 33.3122 63.2157 33.3125C61.6567 33.3324 60.1403 32.8223 58.9332 31.872C57.6965 30.9114 57.0781 29.3486 57.0781 27.1836C57.0781 25.1555 57.6364 23.6003 58.7529 22.5182C59.3237 21.9756 60.004 21.5516 60.7518 21.2724C61.4997 20.9932 62.299 20.8647 63.1004 20.8949C64.0831 20.8806 65.0576 21.0682 65.9591 21.4451ZM61.2041 24.0893C60.7289 24.591 60.4329 25.2261 60.3595 25.9015H65.8359C65.8329 25.5538 65.7562 25.2104 65.6105 24.8923C65.4649 24.5742 65.2533 24.2881 64.9888 24.0515C64.4629 23.624 63.7913 23.3992 63.1034 23.4205C62.756 23.3997 62.408 23.4484 62.0811 23.5635C61.7542 23.6786 61.4556 23.8576 61.2041 24.0893Z" fill="#003079"/>
<path d="M72.3338 27.9437C72.3691 24.2858 71.2493 20.5045 67.5595 18.7779C67.4012 18.705 67.238 18.6422 67.0711 18.5899C66.9837 18.5492 66.8948 18.51 66.8044 18.4741C63.2562 17.0604 58.62 17.8785 56.1081 20.7551C53.7756 23.4261 53.2187 27.6567 54.5024 30.9003C55.0048 32.1391 55.8034 33.2464 56.8333 34.1324C57.8633 35.0183 59.0956 35.6581 60.4303 35.9996H66.1083C68.9466 35.1978 71.5404 33.1923 72.0541 30.3027C72.1229 29.9135 72.1288 29.5163 72.0715 29.1254C72.2408 28.7525 72.33 28.3506 72.3338 27.9437ZM61.8154 24.1719C62.0449 24.103 62.2781 24.0459 62.5139 24.0007L62.7261 23.9854C63.068 23.9701 63.4105 23.977 63.7515 24.0059C63.7112 24.0059 63.833 24.0332 64.1171 24.083C64.273 24.1184 64.4266 24.1625 64.5772 24.215C64.688 24.2691 64.7972 24.326 64.9036 24.3887C64.9478 24.4126 64.9846 24.4322 65.0163 24.4489C65.074 24.5212 65.1384 24.5883 65.2086 24.6494L65.3308 24.7814C65.3447 24.8006 65.3581 24.8207 65.3716 24.8403H60.9599C60.9907 24.7766 61.0011 24.7374 60.9748 24.7479C61.0275 24.6953 61.0801 24.6437 61.1348 24.5934C61.0245 24.7149 61.5402 24.3092 61.5993 24.2758C61.7011 24.2284 61.7707 24.1944 61.8159 24.1719H61.8154Z" fill="#002F6F"/>
<path d="M58.9322 21.9234C58.0854 22.8102 57.5113 23.9062 57.2739 25.089C56.9122 27.0113 58.1324 28.9837 60.3367 28.9837H65.813C67.3998 28.9837 69.2286 27.604 69.0358 25.9248C68.7576 23.4954 67.6249 21.4957 65.1155 20.6561C64.0617 20.3128 62.9313 20.2494 61.8432 20.4724C60.7551 20.6954 59.7496 21.1966 58.9322 21.9234C57.6405 23.0486 57.7682 25.1507 58.9566 26.2807C59.5661 26.8435 60.3792 27.1558 61.2237 27.1514C62.0682 27.147 62.8778 26.8264 63.481 26.2573C63.329 26.3898 62.5922 26.6113 63.2773 26.4515C62.709 26.5836 63.8154 26.6577 63.1571 26.5089C62.9777 26.4683 62.4615 25.9827 62.9425 26.4352C62.8531 26.3693 62.7794 26.2857 62.7266 26.1899C62.6738 26.0941 62.6431 25.9885 62.6364 25.8803L65.8592 22.8214H60.3834L63.4462 26.7156C63.4771 26.5078 63.5239 26.3025 63.5863 26.1013C63.4403 26.6429 63.9311 25.7617 63.481 26.2573C64.0656 25.6704 64.3906 24.8874 64.3861 24.0742C64.3817 23.261 64.0487 22.4813 63.4577 21.9004C62.2743 20.7747 60.0818 20.658 58.9322 21.9234Z" fill="#002F6F"/>
<path d="M85.3687 21.2511C85.9267 21.4793 86.4144 21.8417 86.7851 22.3036C87.1415 22.7419 87.3791 23.2586 87.4767 23.8072C87.564 24.3797 87.6014 24.9582 87.5884 25.5367L87.5661 32.9157H84.3095V25.4611C84.3238 25.0842 84.2475 24.7093 84.0864 24.3655C83.9405 24.0949 83.7137 23.8724 83.4353 23.727C83.1569 23.5815 82.8397 23.5197 82.5245 23.5494C82.1454 23.5208 81.7665 23.6069 81.4407 23.7955C81.1148 23.9842 80.8582 24.2661 80.7067 24.6019C80.5249 25.0272 80.4375 25.4845 80.4503 25.9443V32.9152H77.2489V25.9448C77.2787 25.4308 77.2029 24.9163 77.0258 24.4306C76.8874 24.1495 76.6617 23.9169 76.3799 23.7648C76.098 23.6127 75.7741 23.5488 75.4529 23.5819C74.5457 23.5819 73.9362 23.8648 73.6242 24.4306C73.427 24.8855 73.3393 25.3775 73.3678 25.8697V32.9152H70.1445V21.2296H73.2337V22.9375C73.5255 22.4458 73.9029 22.0062 74.3495 21.6377C75.0387 21.2065 75.8392 20.969 76.6609 20.9521C77.4826 20.9352 78.2929 21.1395 79.0006 21.542C79.4688 21.9174 79.8296 22.4017 80.0489 22.949C80.4097 22.3153 80.9466 21.7908 81.5994 21.4343C82.2774 21.107 83.0271 20.9415 83.7854 20.9516C84.3282 20.953 84.8657 21.0546 85.3687 21.2511Z" fill="#003079"/>
<path d="M83.7707 23.919C83.9466 23.9873 84.1154 24.0714 84.275 24.1702C84.0186 23.9756 84.0337 24.0043 84.3202 24.2563C84.1589 24.0301 84.1801 24.078 84.3838 24.3998C84.2572 24.152 84.2586 24.2209 84.3877 24.6065C84.1741 23.7339 84.3808 24.9351 84.3877 25.1518C84.3917 25.2954 84.3912 25.4389 84.3907 25.5824C84.3881 26.3227 84.3857 27.0631 84.3838 27.8037C84.3788 29.5007 84.3737 31.198 84.3684 32.8954L87.5911 29.8364H84.3346L87.5112 32.9399V25.515C87.5112 22.8756 85.6914 20.6395 82.8605 20.4874C81.5924 20.3973 80.3345 20.7614 79.3281 21.5098C78.3217 22.2582 77.6378 23.3381 77.4076 24.5424C77.2658 25.4814 77.2141 26.4311 77.2531 27.3793V32.8954L80.4759 29.8364H77.2744L80.451 32.9399V27.5951C80.451 26.9421 80.457 26.2886 80.4451 25.6336C80.3909 22.7325 78.5363 20.6649 75.477 20.4989C72.5642 20.3405 70.4592 22.5058 70.2108 25.1566C70.1398 25.9125 70.1701 26.6785 70.1701 27.4363V32.8901L73.3929 29.8312H70.1696L73.3462 32.9346V21.2519L70.1234 24.3108H73.213L70.0365 21.2074V22.9153C70.0365 26.1068 74.2961 27.0148 76.0066 24.4778C76.2464 24.147 76.2725 24.0954 76.0851 24.3228C76.1914 24.1922 76.8059 23.7348 76.2113 24.1338C76.5441 23.9606 76.5542 23.9487 76.2416 24.0979C77.0161 23.841 75.8218 24.0587 76.726 24.0314C77.1294 24.0604 77.1791 24.0517 76.875 24.0051C77.039 24.0295 77.7717 24.3658 77.1796 24.0702C76.9037 23.8543 76.9025 23.8747 77.1761 24.1314C76.7473 23.6898 77.2496 24.4185 77.2913 24.5079C78.3272 26.7493 81.6677 26.2594 82.8213 24.4883C83.339 23.6932 82.5048 24.7332 83.1378 24.1151C82.8781 24.2918 82.9059 24.2837 83.2212 24.0907C82.9082 24.204 82.9382 24.2016 83.3112 24.0836C84.1592 23.8353 82.8367 24.0582 83.7637 24.0314C84.1463 24.0496 84.191 24.0496 83.8979 24.0314C84.112 24.08 84.3221 24.144 84.5263 24.2228C86.1703 24.7907 88.0219 23.5889 88.4566 22.0642C88.9454 20.351 87.8535 18.845 86.2155 18.2795C84.5796 17.732 82.7978 17.7442 81.1702 18.314C79.5426 18.8839 78.1687 19.9765 77.2799 21.4078L82.8099 21.3882C81.7199 19.0306 79.3446 17.9394 76.7712 17.87C73.9891 17.7944 71.9144 19.2469 70.4647 21.3978L76.4343 22.9603V21.2523C76.4328 20.4374 76.099 19.6556 75.5049 19.0752C74.9109 18.4948 74.1039 18.1622 73.2577 18.1489H70.1681C69.322 18.151 68.5105 18.4726 67.908 19.0446C67.3054 19.6165 66.9597 20.3932 66.9453 21.2079V32.8935C66.9469 33.7084 67.2806 34.4902 67.8747 35.0706C68.4688 35.651 69.2757 35.9836 70.1219 35.9969H73.3457C74.1917 35.995 75.0032 35.6735 75.6056 35.1014C76.208 34.5294 76.5532 33.7525 76.567 32.938V25.9207C76.567 25.7346 76.6221 25.2777 76.5456 25.7044C76.4587 26.1943 74.8977 26.7947 75.6563 26.6086C75.1878 26.7239 74.8947 26.5359 74.4834 26.2034C74.0462 25.3075 73.9049 25.1078 74.0596 25.6044C74.0179 25.1898 74.0122 25.1849 74.0427 25.5896C74.0546 25.7867 74.0487 25.9895 74.0487 26.1876V32.8915C74.0502 33.7065 74.384 34.4883 74.9781 35.0687C75.5721 35.6491 76.3791 35.9817 77.2253 35.995H80.4267C81.273 35.9935 82.0848 35.6721 82.6875 35.1C83.2903 34.5279 83.6357 33.7509 83.6495 32.936V25.9685C83.6727 25.5858 83.6655 25.563 83.6281 25.9001C83.7331 25.5579 83.7233 25.5655 83.5988 25.923C83.4925 26.1205 83.3362 26.2891 83.1444 26.4131C82.9526 26.5371 82.7314 26.6126 82.5014 26.6325C81.7785 26.666 81.318 25.9211 81.0939 25.3944C81.3622 26.0259 81.1098 25.4107 81.1098 25.47V32.8949C81.1114 33.7098 81.4451 34.4916 82.0392 35.072C82.6333 35.6524 83.4402 35.985 84.2864 35.9983H87.543C88.389 35.9961 89.2004 35.6745 89.803 35.1025C90.4055 34.5306 90.7512 33.754 90.7657 32.9394C90.7714 31.0576 90.7772 29.1759 90.7831 27.2942C90.7856 26.4837 90.7985 25.6728 90.7762 24.8624C90.7046 22.2867 89.5222 19.7109 86.9691 18.5852C85.3853 17.8872 83.5317 18.1547 82.5972 19.7128C81.7874 21.0619 82.1809 23.2196 83.7707 23.919Z" fill="#002F6F"/>
<path d="M97.6475 21.4451C98.5046 21.8182 99.2333 22.419 99.748 23.177C100.258 23.9021 100.589 24.7297 100.717 25.5968C100.814 26.3675 100.849 27.1444 100.821 27.9204H91.9676C92.0169 29.095 92.4407 29.9185 93.2389 30.3909C93.7674 30.6957 94.3754 30.8486 94.9911 30.8315C95.488 30.8689 95.9849 30.7607 96.4167 30.5211C96.8485 30.2815 97.195 29.9218 97.4106 29.4891H100.656C100.509 30.2979 100.096 31.0396 99.4773 31.6046C98.3883 32.7429 96.8636 33.3122 94.9032 33.3125C93.3442 33.3324 91.8278 32.8223 90.6207 31.872C89.384 30.9114 88.7656 29.3486 88.7656 27.1837C88.7656 25.1555 89.3239 23.6004 90.4404 22.5182C91.0112 21.9756 91.6917 21.5515 92.4396 21.2723C93.1875 20.9931 93.9869 20.8647 94.7884 20.895C95.7712 20.8806 96.7459 21.0682 97.6475 21.4451ZM92.8921 24.0893C92.4169 24.591 92.1209 25.2261 92.0475 25.9015H97.5224C97.5193 25.5539 97.4426 25.2105 97.297 24.8924C97.1513 24.5743 96.9398 24.2882 96.6753 24.0515C96.1494 23.624 95.4778 23.3993 94.7899 23.4205C94.4428 23.3999 94.095 23.4487 93.7684 23.5638C93.4418 23.6789 93.1435 23.8578 92.8921 24.0893Z" fill="#003079"/>
<path d="M104.021 27.9436C104.056 24.2857 102.936 20.5053 99.2469 18.7778C99.0886 18.7047 98.9255 18.6418 98.7585 18.5898C98.6716 18.5491 98.5827 18.5099 98.4922 18.474C94.9435 17.0608 90.3073 17.8779 87.7955 20.755C85.4635 23.426 84.906 27.6566 86.1898 30.9002C86.69 32.1339 87.484 33.2373 88.5081 34.1214C89.5321 35.0056 90.7574 35.6458 92.0854 35.9904H97.8255C100.652 35.1829 103.23 33.1812 103.742 30.3026C103.81 29.9134 103.816 29.5162 103.759 29.1253C103.928 28.7524 104.017 28.3505 104.021 27.9436ZM93.5023 24.1718C93.732 24.1029 93.9653 24.0457 94.2013 24.0006L94.413 23.9853C94.755 23.97 95.0978 23.9769 95.4389 24.0058C95.3981 24.0058 95.5193 24.0331 95.804 24.0828C95.9604 24.1183 96.1145 24.1624 96.2655 24.2149C96.3758 24.2694 96.4851 24.3259 96.591 24.3886C96.6352 24.4125 96.6719 24.4321 96.7037 24.4488C96.7614 24.5211 96.8258 24.5882 96.896 24.6493L97.0182 24.7813C97.0321 24.8005 97.0455 24.8206 97.0589 24.8402H92.6478C92.6786 24.7765 92.689 24.7373 92.6627 24.7478C92.7124 24.6952 92.7675 24.644 92.8222 24.5933C92.7124 24.7148 93.2281 24.3091 93.2872 24.2757C93.388 24.2278 93.4576 24.1948 93.5023 24.1718Z" fill="#002F6F"/>
<path d="M90.6197 21.9234C89.7729 22.8102 89.1988 23.9062 88.9614 25.089C88.5997 27.0113 89.8203 28.9837 92.0242 28.9837H97.5005C99.0873 28.9837 100.916 27.604 100.723 25.9248C100.445 23.4954 99.3123 21.4957 96.803 20.6561C95.7492 20.3128 94.6188 20.2494 93.5307 20.4724C92.4426 20.6954 91.437 21.1966 90.6197 21.9234C89.328 23.0486 89.4557 25.1507 90.644 26.2807C91.2536 26.8435 92.0667 27.1558 92.9112 27.1514C93.7557 27.147 94.5652 26.8264 95.1685 26.2573C95.0164 26.3898 94.2797 26.6113 94.9648 26.4515C94.3964 26.5836 95.5028 26.6577 94.8445 26.5089C94.6652 26.4683 94.149 25.9827 94.6299 26.4352C94.5405 26.3693 94.4669 26.2857 94.4141 26.1899C94.3613 26.0941 94.3305 25.9885 94.3239 25.8803L97.5467 22.8214H92.0704L95.1332 26.7156C95.164 26.5078 95.2109 26.3025 95.2733 26.1013C95.1272 26.6429 95.6211 25.7617 95.1685 26.2573C95.753 25.6703 96.0774 24.8873 96.0728 24.0741C96.0683 23.2609 95.7352 22.4813 95.1441 21.9004C93.9617 20.7747 91.7693 20.658 90.6197 21.9234Z" fill="#002F6F"/>
<path d="M105.11 19.8109H101.887V16.9883H105.11V19.8109ZM101.887 21.2078H105.11V32.9154H101.887V21.2078Z" fill="#003079"/>
<path d="M105.133 16.7312H101.91L105.086 19.8346V17.0096L101.864 20.0686H105.087L101.91 16.9656V19.7882C101.907 20.1929 101.987 20.5942 102.145 20.9691C102.303 21.3441 102.536 21.6855 102.831 21.9737C103.126 22.2619 103.477 22.4913 103.864 22.6488C104.251 22.8064 104.667 22.889 105.087 22.8919C105.507 22.8948 105.924 22.818 106.313 22.6659C106.703 22.5137 107.057 22.2892 107.357 22.0051C107.656 21.721 107.894 21.383 108.058 21.0103C108.221 20.6375 108.307 20.2374 108.31 19.8327V17.0077C108.308 16.193 107.974 15.4116 107.38 14.8313C106.786 14.251 105.98 13.9182 105.134 13.9043H101.91C101.064 13.9064 100.253 14.228 99.6501 14.8C99.0476 15.3719 98.7019 16.1486 98.6875 16.9632V19.7859C98.6897 20.6006 99.0237 21.382 99.6176 21.9623C100.212 22.5426 101.018 22.8754 101.864 22.8893H105.087C105.936 22.8952 106.752 22.5762 107.356 22.0026C107.961 21.429 108.304 20.6477 108.31 19.8306C108.316 19.0135 107.985 18.2275 107.389 17.6455C106.793 17.0635 105.982 16.7333 105.134 16.7274L105.133 16.7312Z" fill="#002F6F"/>
<path d="M101.864 24.2896H105.087L101.911 21.1862V32.8933L105.134 29.8344H101.91L105.087 32.9378V21.2307C105.094 20.8234 105.018 20.4189 104.862 20.0403C104.706 19.6617 104.473 19.3167 104.178 19.0252C103.882 18.7337 103.53 18.5014 103.141 18.3419C102.752 18.1824 102.333 18.0987 101.911 18.0958C101.488 18.0928 101.068 18.1707 100.677 18.3248C100.285 18.4789 99.9293 18.7062 99.6296 18.9936C99.3299 19.281 99.0923 19.6227 98.9306 19.9991C98.7689 20.3754 98.6863 20.7789 98.6875 21.1862V32.8933C98.6891 33.7083 99.0228 34.49 99.6169 35.0704C100.211 35.6508 101.018 35.9835 101.864 35.9967H105.087C105.934 35.9954 106.746 35.674 107.349 35.1019C107.951 34.5298 108.297 33.7527 108.311 32.9378V21.2307C108.309 20.4157 107.975 19.634 107.381 19.0536C106.787 18.4732 105.98 18.1405 105.134 18.1272H101.911C101.062 18.1213 100.246 18.4403 99.6415 19.014C99.0371 19.5876 98.6941 20.369 98.688 21.1862C98.6819 22.0034 99.0131 22.7894 99.6088 23.3714C100.205 23.9534 101.015 24.2837 101.864 24.2896Z" fill="#002F6F"/>
<path d="M112.038 25.7949C112.471 25.7589 112.898 25.6687 113.307 25.5266C113.503 25.471 113.675 25.3566 113.798 25.2001C113.921 25.0436 113.99 24.8532 113.993 24.6568C114.013 24.4601 113.975 24.2617 113.882 24.0854C113.788 23.9092 113.644 23.7626 113.467 23.6632C112.983 23.4545 112.454 23.3605 111.924 23.389C111.63 23.3596 111.333 23.3924 111.054 23.4851C110.774 23.5778 110.519 23.7282 110.307 23.9258C110.059 24.2388 109.903 24.6095 109.854 24.9998H106.787C106.812 24.0905 107.124 23.2101 107.682 22.4758C108.525 21.4449 109.974 20.9294 112.028 20.9291C113.262 20.9067 114.483 21.1683 115.59 21.6921C116.628 22.2002 117.147 23.1597 117.147 24.5707V29.9408C117.147 30.3134 117.155 30.7645 117.169 31.2942C117.161 31.5773 117.226 31.8579 117.359 32.1104C117.479 32.2667 117.641 32.3892 117.827 32.4649V32.9161H114.369C114.28 32.7011 114.213 32.478 114.17 32.2501C114.133 32.0422 114.104 31.8058 114.081 31.5411C113.636 32.0024 113.122 32.397 112.556 32.7118C111.844 33.0973 111.038 33.2936 110.221 33.2806C109.221 33.3163 108.243 32.9922 107.477 32.3716C107.11 32.0473 106.822 31.6481 106.634 31.203C106.447 30.7579 106.365 30.2781 106.395 29.7987C106.35 29.1727 106.49 28.5473 106.798 27.9943C107.106 27.4414 107.57 26.9835 108.137 26.6733C109.015 26.2545 109.968 25.9993 110.946 25.9213L112.038 25.7949ZM113.982 27.224C113.787 27.3416 113.58 27.4405 113.365 27.5191C113.087 27.612 112.802 27.6821 112.512 27.7287L111.788 27.8574C111.281 27.921 110.788 28.0627 110.327 28.2769C110.088 28.4036 109.89 28.5927 109.757 28.8225C109.625 29.0524 109.562 29.3136 109.576 29.5763C109.556 29.7864 109.587 29.9982 109.667 30.1949C109.746 30.3915 109.872 30.5676 110.035 30.7092C110.354 30.9463 110.748 31.0698 111.151 31.0584C111.838 31.0607 112.508 30.858 113.07 30.4781C113.656 30.0915 113.96 29.3862 113.982 28.3621L113.982 27.224Z" fill="#003079"/>
<path d="M120.345 30.5659C120.345 30.3645 120.349 30.1631 120.348 29.9641C120.345 29.3981 120.348 28.8312 120.348 28.2648C120.428 26.4643 120.364 24.6607 120.156 22.8698C119.513 18.8899 114.552 17.6121 111.021 17.8977C109.146 17.9767 107.35 18.6493 105.911 19.8113C104.357 21.1509 103.766 23.0415 103.587 24.9781C103.543 25.531 103.688 26.0825 104 26.5487C103.438 27.6542 103.166 28.8749 103.207 30.1047C103.244 31.4246 103.706 32.7008 104.529 33.757C105.352 34.8131 106.495 35.5969 107.801 36.0002H112.57C112.781 35.9346 112.99 35.8633 113.195 35.782C113.56 35.9253 113.951 35.9984 114.345 35.9973H117.803C118.649 35.9959 119.461 35.6746 120.064 35.1025C120.667 34.5304 121.012 33.7533 121.026 32.9384C121.085 32.0961 120.845 31.2597 120.345 30.5659ZM109.618 30.0803L109.628 30.0856V30.0885L109.617 30.0823L109.618 30.0803ZM109.594 29.9746C109.59 29.9612 109.588 29.9512 109.584 29.9363C109.588 29.9521 109.591 29.9626 109.595 29.9756L109.594 29.9746ZM109.56 29.4938C109.59 29.4594 109.614 29.4311 109.634 29.4058L109.646 29.3991C109.621 29.4225 109.593 29.4531 109.559 29.4914L109.56 29.4938ZM109.626 30.1243V30.1148C109.643 30.1401 109.663 30.1688 109.688 30.2028C109.663 30.1693 109.644 30.1449 109.625 30.1224L109.626 30.1243ZM110.466 30.1808C110.189 30.1665 109.643 30.1459 110.024 30.21C109.944 30.1952 109.864 30.1849 109.783 30.1789C109.742 30.1517 109.7 30.1264 109.657 30.1033V30.1004C109.802 30.1631 109.73 30.0722 109.653 30.0124C109.647 29.9258 109.632 29.8062 109.621 29.7048C109.632 29.657 109.645 29.5684 109.659 29.4775C109.683 29.5048 109.764 29.3761 109.77 29.3268L109.818 29.2977L109.874 29.279C110.16 29.1912 110.45 29.119 110.744 29.0628C110.93 29.0226 112.052 28.8714 110.972 29.0006L112.015 28.8771C112.156 28.8604 112.293 28.8365 112.43 28.8092C112.499 28.8059 112.568 28.8011 112.637 28.7949C112.329 28.9422 112.049 29.1384 111.808 29.3752C111.803 29.3804 111.247 29.8584 111.361 29.7986C111.128 29.9488 110.886 30.085 110.636 30.2066C111.045 29.9985 110.494 30.1315 110.466 30.1789L110.466 30.1808Z" fill="#002F6F"/>
<path d="M112.362 24.5652C112.035 24.7326 112.093 24.725 112.537 24.5422C112.343 24.611 112.144 24.6644 111.941 24.702C111.712 24.7537 111.477 24.7881 111.245 24.8297C110.364 24.9698 109.508 25.2354 108.708 25.6177C105.596 27.1419 105.753 31.6121 108.435 33.3755C110.904 34.9983 114.675 33.9248 116.257 31.6294C117.16 30.3185 117.182 28.7556 117.182 27.2447C117.188 26.4275 116.857 25.6414 116.261 25.0593C115.665 24.4773 114.854 24.147 114.005 24.1411C113.156 24.1352 112.34 24.4542 111.735 25.0279C111.131 25.6016 110.788 26.383 110.782 27.2003C110.782 27.6705 110.791 28.1408 110.768 28.6101C110.801 27.9461 110.749 28.569 110.69 28.7465C110.816 28.3582 111.087 28.0283 111.449 27.8198C110.785 28.313 111.955 27.7423 111.185 27.9753C111.565 27.9606 111.561 27.9606 111.173 27.9753C111.403 27.9871 111.627 28.0528 111.825 28.1666C112.091 28.2905 112.316 28.4813 112.478 28.7187C112.64 28.9562 112.732 29.2314 112.744 29.5152C112.757 29.799 112.689 30.0807 112.549 30.3304C112.408 30.5802 112.2 30.7887 111.947 30.9337C111.276 31.3681 111.624 31.0543 112.001 30.9562C112.25 30.8912 112.506 30.8524 112.76 30.8074C113.756 30.6624 114.718 30.3488 115.601 29.8813C115.968 29.6783 116.289 29.4075 116.546 29.0845C116.803 28.7615 116.991 28.3927 117.099 27.9994C117.207 27.606 117.233 27.1959 117.176 26.7928C117.119 26.3896 116.979 26.0013 116.765 25.6504C116.551 25.2995 116.267 24.9929 115.93 24.7482C115.592 24.5035 115.207 24.3256 114.798 24.2249C114.389 24.1241 113.962 24.1024 113.544 24.1611C113.126 24.2197 112.724 24.3576 112.362 24.5666V24.5652Z" fill="#002F6F"/>
<path d="M39.3995 21.6076V21.9032H35.0156V21.6076H35.2938C35.5038 21.6172 35.7108 21.5578 35.8811 21.4392C36.0045 21.3406 36.0916 21.2064 36.1295 21.0565C36.1922 20.7242 36.215 20.3862 36.1975 20.0489V12.9173C36.2143 12.5696 36.1915 12.2211 36.1295 11.8782C36.0788 11.7325 35.9827 11.6053 35.8542 11.5141C35.6913 11.4031 35.4942 11.3483 35.2948 11.3586H35.0166V11.0625H39.4005V11.3586H39.1222C38.9124 11.3486 38.7053 11.4077 38.535 11.5261C38.4111 11.625 38.3225 11.7589 38.2816 11.9088C38.2187 12.2408 38.1958 12.5788 38.2136 12.9159V20.047C38.1958 20.395 38.2196 20.7438 38.2846 21.0866C38.337 21.232 38.4338 21.3588 38.5623 21.4502C38.7254 21.5615 38.9227 21.6164 39.1222 21.6061L39.3995 21.6076Z" fill="#003079"/>
<path d="M34.3838 21.6076V21.9032H30V21.6076H30.2782C30.4883 21.6173 30.6955 21.5579 30.8659 21.4392C30.9896 21.3409 31.0767 21.2066 31.1143 21.0565C31.1773 20.7243 31.2002 20.3862 31.1824 20.0489V12.9173C31.1995 12.5696 31.1766 12.2211 31.1143 11.8782C31.0637 11.7326 30.9678 11.6054 30.8396 11.5141C30.6765 11.403 30.4792 11.3483 30.2797 11.3586H30.0015V11.0625H34.3853V11.3586H34.1071C33.8973 11.3486 33.6902 11.4077 33.5199 11.5261C33.3959 11.625 33.3073 11.7589 33.2665 11.9088C33.2033 12.2408 33.1803 12.5788 33.1979 12.9159V20.047C33.1805 20.3949 33.2047 20.7436 33.27 21.0861C33.3226 21.2315 33.4196 21.3582 33.5482 21.4497C33.711 21.5611 33.9082 21.616 34.1076 21.6057L34.3838 21.6076Z" fill="#003079"/>
<path d="M24.4112 21.6076V21.9032H20.0273V21.6076H20.3056C20.5156 21.6173 20.7229 21.5579 20.8933 21.4392C21.0169 21.3409 21.1041 21.2066 21.1417 21.0565C21.2047 20.7243 21.2275 20.3862 21.2097 20.0489V12.9173C21.2268 12.5696 21.204 12.2211 21.1417 11.8782C21.0911 11.7324 20.995 11.6053 20.8664 11.5141C20.7035 11.403 20.5064 11.3483 20.307 11.3586H20.0288V11.0625H24.4127V11.3586H24.1345C23.9246 11.3486 23.7175 11.4077 23.5472 11.5261C23.4234 11.6251 23.3348 11.7589 23.2939 11.9088C23.2309 12.2408 23.2081 12.5788 23.2258 12.9159V20.047C23.2079 20.395 23.2317 20.7438 23.2968 21.0866C23.3495 21.232 23.4464 21.3587 23.575 21.4502C23.7379 21.5614 23.9351 21.6164 24.1345 21.6061L24.4112 21.6076Z" fill="#003079"/>
<path d="M19.544 21.6076V21.9032H15.1602V21.6076H15.4384C15.6483 21.6173 15.8554 21.5579 16.0256 21.4392C16.149 21.3406 16.2361 21.2064 16.274 21.0565C16.3369 20.7243 16.3597 20.3862 16.3421 20.0489V12.9173C16.359 12.5696 16.3362 12.2211 16.274 11.8782C16.2234 11.7324 16.1273 11.6053 15.9988 11.5141C15.8359 11.403 15.6387 11.3482 15.4394 11.3586H15.1612V11.0625H19.544V11.3586H19.2658C19.056 11.3487 18.8489 11.4077 18.6785 11.5261C18.5547 11.6251 18.4661 11.7589 18.4252 11.9088C18.3623 12.2408 18.3394 12.5788 18.3571 12.9159V20.047C18.3387 20.3948 18.3619 20.7434 18.4262 21.0861C18.4788 21.2315 18.5758 21.3582 18.7044 21.4497C18.8672 21.561 19.0644 21.616 19.2638 21.6057L19.544 21.6076Z" fill="#003079"/>
<path d="M29.376 21.6076V21.9032H24.9922V21.6076H25.2704C25.4803 21.6172 25.6874 21.5578 25.8576 21.4392C25.9812 21.3408 26.0683 21.2065 26.106 21.0565C26.169 20.7243 26.1918 20.3862 26.1741 20.0489V12.9173C26.1911 12.5696 26.1683 12.2211 26.106 11.8782C26.0553 11.7325 25.9592 11.6053 25.8308 11.5141C25.6679 11.4031 25.4707 11.3483 25.2714 11.3586H24.9932V11.0625H29.377V11.3586H29.0988C28.889 11.3487 28.6819 11.4078 28.5116 11.5261C28.3877 11.6251 28.2991 11.7589 28.2582 11.9088C28.1953 12.2408 28.1725 12.5788 28.1901 12.9159V20.047C28.1722 20.395 28.1961 20.7438 28.2612 21.0866C28.3138 21.232 28.4108 21.3587 28.5394 21.4502C28.7022 21.5615 28.8994 21.6164 29.0988 21.6061L29.376 21.6076Z" fill="#003079"/>
<path d="M11.0485 16.8787H14.9355L20.7521 32.7102H17.0261L15.941 29.457H9.88793L8.77359 32.7102H5.17969L11.0485 16.8787ZM10.8219 26.7277H15.0324L12.9552 20.4983L10.8219 26.7277Z" fill="white"/>
<path d="M20.9018 32.8119H16.9477L15.8627 29.5587H9.96362L8.84929 32.8119H5.02734L10.9721 16.7751H15.0097L20.9018 32.8119ZM17.1032 32.6066H20.6003L14.8572 16.9804H11.1212L5.32841 32.6066H8.69677L9.8111 29.3535H16.0212L17.1032 32.6066ZM15.1776 26.8299H10.6736L12.9559 20.1651L15.1776 26.8299ZM10.9687 26.6246H14.8855L12.9539 20.8292L10.9687 26.6246Z" fill="#003079"/>
<path d="M28.3595 25.2022C28.3052 24.7792 28.1481 24.3746 27.901 24.021C27.7057 23.7796 27.4514 23.5884 27.1607 23.4647C26.87 23.341 26.552 23.2885 26.2352 23.312C25.7421 23.2922 25.2566 23.433 24.8569 23.7118C24.4573 23.9905 24.1669 24.3909 24.0328 24.8482C23.7997 25.5467 23.6937 26.2787 23.7193 27.012C23.6943 27.7138 23.8005 28.4141 24.0328 29.0797C24.1687 29.5197 24.4542 29.903 24.8436 30.1679C25.2329 30.4328 25.7034 30.5639 26.1795 30.5403C26.4731 30.5695 26.7697 30.5324 27.0457 30.4317C27.3217 30.331 27.5695 30.1697 27.7693 29.9605C28.103 29.521 28.3008 28.9995 28.3396 28.4563H31.5853C31.5004 29.4146 31.1368 30.3303 30.536 31.0986C29.5384 32.4381 28.0611 33.1079 26.104 33.1079C24.1469 33.1079 22.7062 32.5498 21.7818 31.4335C20.8141 30.1821 20.3252 28.6472 20.3977 27.0886C20.3977 25.0793 20.9074 23.5165 21.9268 22.4002C22.4579 21.8372 23.1122 21.3948 23.8426 21.1053C24.5729 20.8157 25.361 20.686 26.1497 20.7257C27.4747 20.6711 28.7842 21.0166 29.8951 21.7141C30.8662 22.3731 31.4412 23.5372 31.62 25.2065L28.3595 25.2022Z" fill="white"/>
<path d="M26.0994 33.2094C24.1167 33.2094 22.6347 32.6325 21.6952 31.4948C20.7145 30.2242 20.2176 28.6675 20.2878 27.0858C20.2878 25.0607 20.8109 23.4609 21.8438 22.3299C22.3853 21.757 23.0517 21.3065 23.7953 21.0108C24.5388 20.7152 25.3411 20.5816 26.1447 20.6196C27.491 20.5659 28.8214 20.917 29.9512 21.6243C30.9448 22.2984 31.541 23.4973 31.7213 25.1884L31.7332 25.3018H28.2645L28.2526 25.2128C28.2 24.8058 28.0488 24.4163 27.8114 24.0756C27.6266 23.8474 27.3855 23.6672 27.1101 23.5512C26.8347 23.4353 26.5336 23.3873 26.2341 23.4116C25.7617 23.3904 25.296 23.5247 24.9136 23.7926C24.5312 24.0605 24.255 24.4458 24.1306 24.8851C23.9028 25.5723 23.7991 26.2921 23.8241 27.0131C23.7997 27.7022 23.9033 28.3899 24.1301 29.0439C24.2571 29.4652 24.5287 29.8326 24.9006 30.086C25.2725 30.3394 25.7226 30.4638 26.1774 30.439C26.4544 30.4666 26.7342 30.4322 26.995 30.3385C27.2558 30.2447 27.4905 30.094 27.6808 29.8984C28.0009 29.4737 28.1903 28.9708 28.2273 28.4473L28.2372 28.3555H31.694L31.6851 28.466C31.5974 29.443 31.227 30.3769 30.6159 31.1614C29.6044 32.5196 28.0842 33.2094 26.0994 33.2094ZM26.1442 20.8253C25.3711 20.7878 24.599 20.9155 23.8832 21.1991C23.1674 21.4827 22.5256 21.9153 22.0038 22.4658C21.0067 23.5585 20.5009 25.1128 20.5009 27.0863C20.4313 28.6213 20.9119 30.1327 21.8622 31.3671C22.7594 32.4531 24.1852 33.0042 26.0999 33.0042C28.0146 33.0042 29.4738 32.3426 30.4455 31.0384C31.0089 30.3143 31.3608 29.4581 31.4645 28.5588H28.4305C28.3779 29.0885 28.177 29.5944 27.8492 30.0227C27.64 30.2444 27.3801 30.416 27.0899 30.524C26.7998 30.632 26.4875 30.6733 26.1779 30.6447C25.6801 30.6681 25.1885 30.5305 24.7813 30.2536C24.3742 29.9768 24.075 29.5767 23.9314 29.1171C23.6949 28.4395 23.5866 27.7266 23.6114 27.0121C23.5862 26.2663 23.6945 25.5219 23.9314 24.8114C24.0733 24.3345 24.3774 23.9172 24.7949 23.6265C25.2125 23.3359 25.7193 23.1886 26.2341 23.2083C26.5677 23.185 26.9022 23.2413 27.2077 23.3723C27.5133 23.5034 27.7806 23.705 27.9858 23.9594C28.2254 24.3018 28.384 24.6906 28.4503 25.0985H31.4958C31.3075 23.5288 30.7466 22.4194 29.828 21.7946C28.7342 21.1112 27.4468 20.7725 26.1442 20.8253Z" fill="#003079"/>
<path d="M37.979 25.5894C38.4124 25.5532 38.8391 25.463 39.2483 25.321C39.444 25.2654 39.616 25.151 39.7392 24.9945C39.8625 24.838 39.9305 24.6476 39.9334 24.4513C39.9542 24.2546 39.9157 24.0563 39.8224 23.8802C39.7292 23.704 39.5853 23.5575 39.4078 23.4581C38.9234 23.2494 38.3941 23.1554 37.8642 23.184C37.5704 23.1546 37.2735 23.1874 36.9943 23.2801C36.715 23.3729 36.4602 23.5232 36.2476 23.7207C36.0004 24.0336 35.8443 24.4044 35.7955 24.7948H32.7282C32.7533 23.8855 33.0652 23.0051 33.6225 22.2707C34.4664 21.2399 35.9153 20.7243 37.9691 20.724C39.2026 20.7016 40.4238 20.9632 41.5312 21.487C42.5692 21.9954 43.0882 22.955 43.0882 24.3656V29.7358C43.0882 30.1083 43.0956 30.5594 43.1105 31.0892C43.1019 31.3722 43.1672 31.6529 43.3003 31.9053C43.4208 32.0617 43.5826 32.1841 43.7688 32.2598V32.711H40.3105C40.2209 32.4961 40.1543 32.273 40.1118 32.045C40.0747 31.8371 40.0451 31.6008 40.0229 31.336C39.5779 31.7975 39.0636 32.1921 38.4972 32.5067C37.7849 32.8923 36.9791 33.0888 36.1622 33.076C35.1623 33.1119 34.1844 32.7878 33.4193 32.167C33.0514 31.8428 32.7632 31.4436 32.5758 30.9984C32.3885 30.5533 32.3066 30.0736 32.3363 29.5941C32.2916 28.9682 32.4314 28.3428 32.7394 27.7899C33.0475 27.237 33.5113 26.7791 34.0776 26.4687C34.9565 26.05 35.9097 25.7948 36.887 25.7167L37.979 25.5894ZM39.9225 27.0179C39.7277 27.1355 39.5213 27.2344 39.3065 27.3131C39.0284 27.406 38.7427 27.4761 38.4524 27.5226L37.7291 27.6513C37.2219 27.7147 36.7285 27.8562 36.268 28.0704C36.0285 28.1969 35.8309 28.386 35.698 28.6159C35.5651 28.8457 35.5023 29.1071 35.5168 29.3698C35.4965 29.5799 35.5274 29.7917 35.607 29.9884C35.6866 30.1851 35.8128 30.3611 35.9754 30.5026C36.2942 30.7398 36.6885 30.8632 37.0912 30.8519C37.7778 30.8541 38.4483 30.6514 39.0104 30.2716C39.5956 29.885 39.8995 29.1799 39.922 28.1561L39.9225 27.0179Z" fill="white"/>
<path d="M36.1663 33.178C35.1412 33.213 34.139 32.8808 33.3534 32.2456C32.9746 31.9112 32.6777 31.5 32.4842 31.0417C32.2906 30.5833 32.2052 30.0892 32.2341 29.5952C32.1906 28.9513 32.3358 28.3086 32.6532 27.7403C32.9705 27.1719 33.4473 26.7009 34.0291 26.3808C34.9205 25.9557 35.8871 25.696 36.8783 25.6153L37.9688 25.4862C38.3927 25.4512 38.8102 25.3636 39.2108 25.2254C39.3872 25.1776 39.5429 25.0764 39.6548 24.9367C39.7668 24.797 39.829 24.6263 39.8323 24.4499C39.853 24.2717 39.8197 24.0916 39.7363 23.9313C39.6529 23.7709 39.523 23.6374 39.3623 23.5467C38.8939 23.3476 38.3831 23.2581 37.8719 23.2855C37.5935 23.2572 37.3121 23.2873 37.047 23.3738C36.782 23.4603 36.5395 23.601 36.3363 23.7864C36.1025 24.0852 35.9549 24.4382 35.9085 24.8097L35.8941 24.8963H32.6226L32.6296 24.7872C32.6576 23.8574 32.9777 22.9577 33.5477 22.2067C34.4096 21.1542 35.9001 20.6203 37.9787 20.6203C39.2272 20.5995 40.4631 20.8645 41.5845 21.3934C42.6561 21.9196 43.1996 22.9171 43.1996 24.3633V29.7335C43.1996 30.1033 43.2071 30.5578 43.222 31.084C43.2103 31.3472 43.2688 31.6089 43.3919 31.8442C43.502 31.9855 43.6491 32.0961 43.8182 32.1647L43.8803 32.1925V32.8115H40.2431L40.2163 32.7465C40.1236 32.525 40.0543 32.2949 40.0096 32.06C39.9833 31.9117 39.96 31.7461 39.9406 31.5667C39.5266 31.9658 39.0601 32.311 38.553 32.5934C37.8249 32.9875 37.0015 33.1892 36.1663 33.178ZM37.8669 23.0807C38.4145 23.0525 38.9611 23.151 39.4612 23.3678C39.6558 23.4758 39.8142 23.6354 39.9173 23.8276C40.0205 24.0198 40.0641 24.2365 40.0429 24.4518C40.0406 24.6686 39.9666 24.879 39.8316 25.0524C39.6966 25.2259 39.5076 25.3533 39.2923 25.4163C38.8741 25.5626 38.4378 25.6553 37.9946 25.6919L36.9041 25.821C35.9409 25.8979 35.0013 26.1487 34.1344 26.5602C33.5857 26.8629 33.1363 27.3081 32.8377 27.8449C32.539 28.3817 32.403 28.9885 32.4453 29.5962C32.4171 30.0607 32.4963 30.5255 32.6772 30.9571C32.8582 31.3886 33.1363 31.7761 33.4915 32.0915C34.2386 32.6937 35.1908 33.008 36.1644 32.9737C36.962 32.9853 37.7487 32.7937 38.4447 32.4183C39.0014 32.1083 39.5071 31.7202 39.9451 31.2668L40.1095 31.0955L40.1294 31.328C40.1517 31.5897 40.1791 31.826 40.2173 32.0279C40.2547 32.2262 40.3112 32.4206 40.3862 32.6087H43.6652V32.3245C43.4877 32.2417 43.3342 32.1182 43.218 31.9648C43.0719 31.697 43.0001 31.3974 43.0094 31.095C42.9945 30.564 42.987 30.1076 42.987 29.7359V24.3648C42.987 23.0023 42.4828 22.0646 41.4881 21.5776C40.3951 21.0627 39.1908 20.8051 37.9742 20.826C35.9646 20.826 34.5304 21.3336 33.7116 22.3334C33.1891 23.0207 32.8881 23.8408 32.8462 24.6915H35.7093C35.7692 24.3142 35.9273 23.9575 36.1688 23.6548C36.3913 23.4456 36.6587 23.2858 36.9521 23.1865C37.2455 23.0873 37.5579 23.051 37.8674 23.0802L37.8669 23.0807ZM37.0939 30.9553C36.6672 30.9662 36.2497 30.8349 35.912 30.5836C35.737 30.4324 35.601 30.2441 35.5148 30.0335C35.4286 29.8229 35.3945 29.5958 35.4152 29.3704C35.4007 29.0898 35.4685 28.8109 35.6107 28.5656C35.7529 28.3203 35.9639 28.1184 36.2195 27.983C36.6905 27.762 37.1957 27.6166 37.7154 27.5524L38.4377 27.4242C38.7219 27.3786 39.0016 27.3101 39.2739 27.2194C39.4818 27.1426 39.6814 27.0464 39.87 26.9324L40.033 26.8367V28.16C40.0096 29.2163 39.6852 29.9559 39.0747 30.3607C38.4938 30.7503 37.8022 30.9578 37.0944 30.9548L37.0939 30.9553ZM39.8184 27.1979C39.6666 27.2796 39.5089 27.3504 39.3464 27.4098C39.0625 27.5045 38.7708 27.5762 38.4745 27.6242L37.7512 27.7529C37.2561 27.8148 36.7745 27.9522 36.3243 28.16C36.1011 28.2775 35.9171 28.4538 35.794 28.6682C35.6708 28.8826 35.6135 29.1263 35.6288 29.3708C35.6095 29.5654 35.6371 29.7617 35.7096 29.9442C35.7821 30.1268 35.8974 30.2908 36.0466 30.4233C36.3471 30.6454 36.7178 30.7609 37.0964 30.7506C37.7614 30.7518 38.4106 30.5555 38.9554 30.1884C39.5084 29.8234 39.8 29.1393 39.8209 28.1552L39.8184 27.1979Z" fill="#003079"/>
<path d="M51.5179 21.1908C52.0893 21.5013 52.5692 21.9468 52.9124 22.4853V16.9004H56.1357V32.7103H53.0466V31.0886C52.669 31.7101 52.136 32.2308 51.496 32.6032C50.8292 32.9382 50.0836 33.1011 49.3319 33.0759C48.6424 33.0809 47.9607 32.934 47.3392 32.6463C46.7176 32.3587 46.1727 31.9379 45.746 31.4163C44.7415 30.2135 44.2245 28.7005 44.2908 27.1584C44.2908 25.1606 44.7686 23.5889 45.7241 22.4432C46.1769 21.8864 46.76 21.4406 47.4257 21.1419C48.0914 20.8433 48.821 20.7004 49.555 20.7248C50.2403 20.7122 50.9171 20.8729 51.5179 21.1908ZM52.2989 29.5313C52.7967 28.7874 53.0421 27.9129 53.0014 27.0288C53.0014 25.5964 52.6258 24.5725 51.8746 23.9569C51.4276 23.5891 50.8569 23.3903 50.2689 23.3977C49.8642 23.3718 49.4597 23.4527 49.0991 23.6316C48.7385 23.8104 48.4353 24.0805 48.2221 24.4128C47.7915 25.2015 47.5675 26.0795 47.5694 26.9705C47.5713 27.8615 47.7991 28.7386 48.233 29.5256C48.45 29.844 48.7506 30.1015 49.1041 30.2721C49.4577 30.4427 49.8518 30.5204 50.2466 30.4972C50.6458 30.5178 51.0438 30.4399 51.403 30.2709C51.7621 30.1019 52.0705 29.8473 52.2989 29.5313Z" fill="white"/>
<path d="M49.3328 33.1771C48.6279 33.1812 47.9313 33.0306 47.2958 32.7368C46.6604 32.4429 46.1028 32.0135 45.6654 31.4811C44.6467 30.2585 44.1209 28.7226 44.1849 27.1563C44.1849 25.1437 44.6748 23.5357 45.6415 22.377C46.1053 21.8092 46.7012 21.3543 47.3811 21.0491C48.0611 20.744 48.8061 20.5971 49.5559 20.6203C50.2595 20.6082 50.9543 20.7731 51.5714 21.0987C52.0553 21.3622 52.4761 21.7208 52.8065 22.1512V16.7969H56.2429V32.8121H52.9401V31.4247C52.5792 31.9402 52.1041 32.3724 51.5491 32.6901C50.8662 33.0333 50.1028 33.2011 49.3328 33.1771ZM49.5559 20.8255C48.8381 20.803 48.1249 20.9433 47.4738 21.2352C46.8228 21.527 46.2521 21.9623 45.808 22.5057C44.8725 23.6266 44.3985 25.192 44.3985 27.1563C44.335 28.674 44.8427 30.1628 45.8283 31.3486C46.2461 31.8577 46.7788 32.2685 47.386 32.5497C47.9932 32.831 48.659 32.9754 49.3328 32.9719C50.0659 32.9962 50.7932 32.838 51.4443 32.5126C52.0679 32.1477 52.5876 31.6392 52.9565 31.0329L53.1553 30.7315V32.6068H56.0313V17.0036H53.0216V22.8444L52.8229 22.5402C52.4886 22.0168 52.0219 21.5836 51.4666 21.281C50.8817 20.9716 50.2231 20.8146 49.5559 20.8255ZM50.2475 30.5994C49.835 30.6222 49.4236 30.5401 49.0545 30.3614C48.6854 30.1827 48.3716 29.9137 48.1445 29.5814C47.6994 28.778 47.4656 27.8818 47.4634 26.9712C47.4613 26.0607 47.6908 25.1635 48.132 24.3581C48.3551 24.0115 48.6715 23.7296 49.0477 23.5423C49.4238 23.355 49.8457 23.2694 50.2683 23.2946C50.8812 23.2878 51.476 23.495 51.9426 23.8778C52.7156 24.5107 53.1076 25.5709 53.1076 27.0281C53.147 27.9332 52.8947 28.8279 52.3852 29.5895C52.1469 29.9185 51.8258 30.1838 51.4518 30.3604C51.0779 30.5371 50.6635 30.6193 50.2475 30.5994ZM50.2698 23.4998C49.883 23.4728 49.4959 23.5487 49.1509 23.7192C48.8058 23.8898 48.5161 24.1483 48.3134 24.4667C47.8936 25.2387 47.6751 26.0975 47.6767 26.969C47.6784 27.8404 47.9001 28.6984 48.3228 29.469C48.5294 29.7739 48.8166 30.0203 49.1548 30.1829C49.4931 30.3455 49.8702 30.4184 50.2475 30.3942C50.6296 30.4159 51.0111 30.3425 51.3552 30.1809C51.6992 30.0194 51.9943 29.7751 52.2118 29.4718C52.6959 28.7446 52.9346 27.8911 52.8954 27.0281C52.8954 25.634 52.5288 24.627 51.8059 24.0347C51.3777 23.6838 50.8321 23.4938 50.2698 23.4998Z" fill="#003079"/>
<path d="M66.1851 21.24C67.0422 21.6132 67.771 22.214 68.2861 22.9719C68.7959 23.697 69.1272 24.5246 69.2549 25.3917C69.3519 26.1625 69.3868 26.9393 69.3592 27.7153H60.5046C60.554 28.8896 60.9778 29.7131 61.776 30.1858C62.3046 30.4907 62.9128 30.6436 63.5287 30.6264C64.0256 30.664 64.5226 30.5559 64.9545 30.3163C65.3863 30.0767 65.7327 29.7168 65.9481 29.284H69.1938C69.0474 30.0925 68.6348 30.8343 68.0169 31.3995C66.9282 32.5378 65.4035 33.1071 63.4427 33.1074C61.8837 33.1273 60.3674 32.6172 59.1603 31.6669C57.9236 30.7063 57.305 29.1435 57.3047 26.9785C57.3047 24.9504 57.8631 23.3953 58.9799 22.3131C59.5507 21.7705 60.2311 21.3465 60.9789 21.0673C61.7267 20.7881 62.5261 20.6597 63.3275 20.6899C64.3098 20.6759 65.2839 20.8634 66.1851 21.24ZM61.4292 23.8828C60.954 24.3845 60.658 25.0196 60.5846 25.695H66.0594C66.0567 25.3475 65.9804 25.0042 65.8352 24.6861C65.69 24.368 65.4789 24.0818 65.2149 23.845C64.6891 23.4176 64.0177 23.1928 63.33 23.214C62.9824 23.1931 62.634 23.2417 62.3069 23.3568C61.9798 23.4719 61.6809 23.651 61.4292 23.8828Z" fill="white"/>
<path d="M63.4397 33.2102C61.8566 33.2277 60.3174 32.7098 59.0901 31.7468C57.8327 30.7699 57.1953 29.1662 57.1953 26.9794C57.1953 24.9328 57.7696 23.3388 58.9013 22.2432C59.4826 21.6923 60.1747 21.2615 60.935 20.9771C61.6953 20.6928 62.5079 20.561 63.3229 20.5898C64.3204 20.576 65.3096 20.766 66.2253 21.1472C67.1003 21.5296 67.8446 22.1435 68.3715 22.9173C68.8894 23.6553 69.2266 24.4969 69.3577 25.3787C69.4552 26.1552 69.4906 26.9378 69.4635 27.7195V27.8205H60.6178C60.6061 28.2681 60.7113 28.7114 60.9236 29.1097C61.1359 29.5081 61.4486 29.8487 61.833 30.1006C62.3453 30.3947 62.9339 30.5422 63.5301 30.5259C64.0075 30.5634 64.4855 30.4603 64.9008 30.2303C65.316 30.0004 65.6488 29.6543 65.8552 29.238L65.8855 29.1835H69.3134L69.299 29.2983C69.1485 30.1286 68.7254 30.8906 68.0918 31.4722C66.9894 32.6237 65.4239 33.2102 63.4397 33.2102ZM63.3249 20.7941C62.5377 20.7654 61.7526 20.8918 61.0179 21.1657C60.2832 21.4396 59.6144 21.8551 59.0524 22.3867C57.9594 23.444 57.4084 24.9897 57.4084 26.9794C57.4084 29.1007 58.019 30.6512 59.2238 31.5865C60.4132 32.5199 61.905 33.0217 63.4392 33.0045C65.3593 33.0045 66.8716 32.4409 67.9343 31.3301C68.5028 30.804 68.8974 30.128 69.0685 29.3868H66.0097C65.8468 29.6853 65.626 29.9509 65.3594 30.1695C64.8362 30.5581 64.1873 30.7565 63.5271 30.7297C62.8913 30.7463 62.2637 30.5881 61.7178 30.2738C60.8916 29.7843 60.4469 28.9256 60.3962 27.7205L60.3918 27.6133H69.2523C69.2753 26.8767 69.2403 26.1394 69.1475 25.4079C69.0215 24.5563 68.6962 23.7434 68.1961 23.0307C67.6912 22.2889 66.978 21.7004 66.1393 21.3337C65.252 20.9645 64.2935 20.7804 63.3269 20.7936L63.3249 20.7941ZM66.1721 25.7987H60.4588L60.4767 25.6815C60.5549 24.9848 60.8617 24.3302 61.3526 23.8128C61.6141 23.5718 61.9243 23.3852 62.264 23.2648C62.6037 23.1443 62.9655 23.0927 63.3269 23.1129C64.0401 23.0927 64.7361 23.3262 65.2819 23.7688C65.5565 24.0147 65.7764 24.3117 65.9283 24.6419C66.0801 24.9721 66.1607 25.3286 66.1652 25.6896L66.1721 25.7987ZM60.7072 25.5935H65.9431C65.9154 24.9571 65.6277 24.357 65.1427 23.9239C64.6356 23.5138 63.9893 23.298 63.3274 23.3177C62.9947 23.2983 62.6613 23.3448 62.348 23.4545C62.0347 23.5642 61.7482 23.7347 61.5061 23.9554C61.0728 24.4104 60.7941 24.9819 60.7072 25.5935Z" fill="#003079"/>
<path d="M85.5894 21.046C86.1475 21.2743 86.6353 21.6367 87.0063 22.0985C87.3623 22.537 87.5999 23.0536 87.6978 23.6022C87.7849 24.1746 87.8223 24.7531 87.8096 25.3316L87.7872 32.7101H84.5317V25.256C84.5459 24.8794 84.4697 24.5046 84.3091 24.1609C84.1631 23.8903 83.9363 23.6679 83.6579 23.5225C83.3796 23.377 83.0624 23.3151 82.7471 23.3448C82.368 23.3162 81.9891 23.4022 81.6631 23.5909C81.3372 23.7795 81.0805 24.0614 80.9288 24.3973C80.7472 24.8227 80.6599 25.2799 80.6725 25.7397V32.7101H77.4715V25.7397C77.5013 25.2257 77.4255 24.7112 77.2485 24.2255C77.1102 23.9445 76.8845 23.7118 76.6028 23.5598C76.3211 23.4077 75.9972 23.3438 75.6761 23.3768C74.7689 23.3768 74.1592 23.6597 73.8468 24.2255C73.6499 24.6805 73.5622 25.1724 73.5905 25.6646V32.7101H70.3672V21.0245H73.4529V22.7324C73.7443 22.2406 74.1216 21.8009 74.5682 21.4326C75.2574 21.0014 76.0579 20.764 76.8796 20.7471C77.7013 20.7302 78.5116 20.9344 79.2193 21.3369C79.6876 21.7121 80.0485 22.1965 80.2676 22.7439C80.6284 22.1104 81.1651 21.586 81.8176 21.2293C82.4956 20.9021 83.2453 20.7366 84.0036 20.7465C84.5472 20.7476 85.0856 20.8492 85.5894 21.046Z" fill="white"/>
<path d="M87.8925 32.8127H84.4248V25.2538C84.4383 24.893 84.3659 24.5339 84.2131 24.2042C84.0765 23.9503 83.8635 23.7419 83.6019 23.6065C83.3403 23.471 83.0424 23.4147 82.7471 23.445C82.3882 23.4156 82.0289 23.4956 81.72 23.6738C81.411 23.8519 81.1681 24.1192 81.0256 24.4377C80.8504 24.8496 80.7658 25.292 80.7772 25.737V32.8127H77.3627V25.7394C77.3914 25.2402 77.3189 24.7403 77.149 24.2678C77.0195 24.0044 76.8076 23.7866 76.5429 23.6452C76.2782 23.5038 75.9742 23.4458 75.6735 23.4794C74.8006 23.4794 74.2328 23.7392 73.9382 24.2736C73.7503 24.714 73.667 25.1893 73.6942 25.6648V32.8127H70.2578V20.9214H73.5606V22.3848C73.8175 21.9948 74.1359 21.6459 74.5045 21.3505C75.2118 20.9059 76.0343 20.661 76.8788 20.6436C77.7233 20.6262 78.5559 20.8369 79.2823 21.2519C79.7129 21.5949 80.0561 22.0285 80.2854 22.5192C80.6484 21.9437 81.1593 21.468 81.7688 21.1381C82.4624 20.8037 83.2289 20.6339 84.0045 20.6429C84.5611 20.6447 85.1123 20.7493 85.6281 20.951C86.2026 21.1861 86.7051 21.559 87.0877 22.0341C87.4543 22.4861 87.6993 23.0182 87.8011 23.5832C87.8893 24.1622 87.9274 24.7472 87.9149 25.3323L87.8925 32.8127ZM84.6359 32.6074H87.6799L87.7022 25.3313C87.7147 24.7591 87.678 24.1869 87.5924 23.6205C87.4972 23.0891 87.2671 22.5886 86.9227 22.1633C86.5628 21.7157 86.0901 21.364 85.5495 21.1414C85.059 20.9497 84.5349 20.8502 84.0055 20.8482C83.2645 20.8393 82.5321 21.001 81.8692 21.3199C81.2352 21.6681 80.7138 22.1786 80.3629 22.7948L80.2531 22.9766L80.1716 22.7814C79.9586 22.2503 79.6086 21.7803 79.1547 21.4155C78.4657 21.028 77.6786 20.832 76.8809 20.8494C76.0832 20.8668 75.3062 21.0969 74.6362 21.5141C74.2 21.8752 73.8313 22.3056 73.5462 22.7867L73.3475 23.0914V21.1252H70.4715V32.6069H73.4811V25.6643C73.4531 25.1557 73.5448 24.6475 73.7494 24.1779C74.0813 23.577 74.7281 23.2732 75.6735 23.2732C76.0152 23.2399 76.3592 23.3095 76.6582 23.4723C76.9571 23.635 77.1963 23.8831 77.3428 24.1822C77.5276 24.6809 77.6069 25.2102 77.5758 25.7389V32.6069H80.5636V25.7394C80.5514 25.2653 80.642 24.7939 80.8294 24.3554C80.9894 24.0014 81.2597 23.7041 81.6029 23.5045C81.9461 23.305 82.3453 23.2131 82.7451 23.2416C83.0801 23.2116 83.4168 23.2787 83.712 23.4341C84.0072 23.5896 84.2474 23.8264 84.4019 24.1143C84.5697 24.4725 84.6497 24.863 84.6359 25.2557V32.6074Z" fill="#003079"/>
<path d="M97.8731 21.2396C98.7302 21.6127 99.4591 22.2135 99.9741 22.9714C100.484 23.6965 100.815 24.5241 100.943 25.3912C101.04 26.1619 101.075 26.9388 101.048 27.7148H92.1936C92.243 28.8891 92.6668 29.7126 93.465 30.1853C93.9936 30.4902 94.6018 30.6431 95.2177 30.6259C95.7146 30.6635 96.2116 30.5554 96.6435 30.3158C97.0753 30.0762 97.4217 29.7163 97.6371 29.2835H100.883C100.736 30.0925 100.323 30.8344 99.7039 31.3995C98.6149 32.5378 97.0902 33.1071 95.1297 33.1074C93.5707 33.1273 92.0544 32.6172 90.8473 31.6669C89.6106 30.7063 88.9922 29.1435 88.9922 26.9785C88.9922 24.9504 89.5506 23.3953 90.6674 22.3131C91.2382 21.7705 91.9186 21.3465 92.6664 21.0673C93.4142 20.7881 94.2136 20.6597 95.015 20.6899C95.9974 20.6756 96.9717 20.863 97.8731 21.2396ZM93.1187 23.8823C92.6437 24.3842 92.3477 25.0192 92.2741 25.6945H97.7509C97.7483 25.347 97.672 25.0037 97.5268 24.6856C97.3816 24.3675 97.1704 24.0813 96.9063 23.8445C96.3804 23.4171 95.7088 23.1923 95.021 23.2135C94.6731 23.1923 94.3245 23.2409 93.997 23.356C93.6696 23.4711 93.3706 23.6503 93.1187 23.8823Z" fill="white"/>
<path d="M95.1267 33.2102C93.5436 33.2277 92.0044 32.7098 90.7771 31.7468C89.5202 30.7703 88.8828 29.1662 88.8828 26.9794C88.8828 24.9323 89.4571 23.3388 90.5884 22.2432C91.1697 21.6923 91.8617 21.2615 92.622 20.9771C93.3823 20.6928 94.1949 20.561 95.0099 20.5898C96.0074 20.576 96.9966 20.766 97.9123 21.1472C98.7873 21.5295 99.5314 22.1434 100.058 22.9173C100.576 23.6553 100.913 24.4969 101.044 25.3787C101.142 26.1552 101.177 26.9378 101.15 27.7195V27.8205H92.3023C92.2909 28.268 92.3962 28.7112 92.6084 29.1095C92.8207 29.5078 93.1333 29.8486 93.5175 30.1006C94.0298 30.3947 94.6185 30.5422 95.2146 30.5259C95.692 30.5634 96.17 30.4603 96.5853 30.2303C97.0005 30.0004 97.3333 29.6543 97.5397 29.238L97.57 29.1835H100.998L100.984 29.2983C100.833 30.1286 100.41 30.8906 99.7763 31.4722C98.6744 32.6237 97.1089 33.2102 95.1267 33.2102ZM95.0119 20.7941C94.2247 20.7654 93.4396 20.8919 92.7049 21.1657C91.9703 21.4396 91.3014 21.8551 90.7394 22.3867C89.6489 23.444 89.096 24.9893 89.096 26.9794C89.096 29.1012 89.7065 30.6512 90.9108 31.5865C92.1003 32.5199 93.5923 33.0218 95.1267 33.0045C97.0468 33.0045 98.5591 32.4409 99.6218 31.3301C100.19 30.8039 100.585 30.1279 100.756 29.3868H97.6972C97.5345 29.6853 97.3139 29.951 97.0474 30.1695C96.5241 30.5581 95.8753 30.7565 95.2151 30.7297C94.5793 30.7462 93.9517 30.5881 93.4058 30.2738C92.5796 29.7843 92.1349 28.9256 92.0847 27.7205L92.0803 27.6133H100.94C100.964 26.8767 100.929 26.1394 100.836 25.4079C100.71 24.5563 100.385 23.7434 99.8846 23.0307C99.3797 22.2889 98.6665 21.7004 97.8278 21.3337C96.9394 20.964 95.9797 20.7804 95.0119 20.7941ZM97.8591 25.7992H92.1458L92.1632 25.682C92.2415 24.9853 92.5483 24.3307 93.0391 23.8133C93.3006 23.5722 93.6108 23.3857 93.9505 23.2652C94.2902 23.1448 94.652 23.0931 95.0134 23.1134C95.7266 23.0931 96.4226 23.3266 96.9684 23.7693C97.2431 24.0151 97.4631 24.3121 97.615 24.6423C97.7668 24.9725 97.8473 25.329 97.8517 25.6901L97.8591 25.7992ZM92.3942 25.594H97.6291C97.6014 24.9576 97.3137 24.3575 96.8288 23.9243C96.3215 23.5141 95.675 23.2984 95.0129 23.3182C94.6802 23.2987 94.3468 23.3453 94.0335 23.455C93.7202 23.5647 93.4337 23.7352 93.1916 23.9559C92.7588 24.4109 92.4803 24.9822 92.3933 25.5935L92.3942 25.594Z" fill="#003079"/>
<path d="M105.34 19.6078H102.117V16.7852H105.34V19.6078ZM102.117 21.0042H105.34V32.7114H102.117V21.0042Z" fill="white"/>
<path d="M105.445 32.8111H102.008V20.8987H105.445V32.8111ZM102.221 32.6058H105.232V21.104H102.221V32.6058ZM105.445 19.7075H102.008V16.6777H105.445V19.7075ZM102.221 19.5023H105.232V16.883H102.221V19.5023Z" fill="#003079"/>
<path d="M112.259 25.5894C112.693 25.5531 113.119 25.4629 113.529 25.321C113.724 25.2653 113.896 25.1509 114.019 24.9944C114.143 24.8379 114.211 24.6476 114.214 24.4513C114.234 24.2546 114.196 24.0564 114.103 23.8803C114.01 23.7042 113.866 23.5576 113.689 23.4581C113.204 23.2493 112.675 23.1553 112.145 23.184C111.851 23.1546 111.554 23.1874 111.275 23.2801C110.996 23.3729 110.741 23.5232 110.528 23.7207C110.281 24.0338 110.125 24.4045 110.076 24.7948H107.009C107.034 23.8855 107.346 23.0051 107.903 22.2707C108.747 21.2399 110.196 20.7243 112.25 20.724C113.483 20.7016 114.705 20.9632 115.812 21.487C116.85 21.9954 117.369 22.955 117.369 24.3656V29.7358C117.369 30.1083 117.376 30.5594 117.391 31.0892C117.383 31.3722 117.448 31.6529 117.581 31.9053C117.702 32.0616 117.863 32.184 118.05 32.2598V32.711H114.592C114.502 32.4961 114.435 32.273 114.393 32.045C114.356 31.8371 114.326 31.6008 114.304 31.336C113.859 31.7974 113.344 32.192 112.778 32.5067C112.066 32.8925 111.26 33.0889 110.443 33.076C109.443 33.1116 108.465 32.7876 107.7 32.167C107.332 31.8427 107.044 31.4435 106.857 30.9984C106.67 30.5533 106.588 30.0735 106.618 29.5941C106.573 28.9682 106.713 28.3428 107.021 27.7899C107.329 27.237 107.793 26.7791 108.359 26.4687C109.238 26.05 110.191 25.7949 111.168 25.7167L112.259 25.5894ZM114.203 27.0179C114.008 27.1356 113.802 27.2345 113.587 27.3131C113.309 27.4066 113.024 27.4773 112.735 27.5246L112.011 27.6533C111.504 27.7167 111.011 27.8582 110.55 28.0723C110.311 28.199 110.113 28.3881 109.981 28.6179C109.848 28.8478 109.785 29.109 109.8 29.3717C109.779 29.5819 109.81 29.7938 109.89 29.9904C109.97 30.1871 110.096 30.3632 110.259 30.5046C110.577 30.7419 110.972 30.8654 111.374 30.8538C112.061 30.856 112.732 30.6533 113.294 30.2735C113.879 29.8869 114.183 29.1818 114.205 28.158L114.203 27.0179Z" fill="white"/>
<path d="M110.444 33.1781C109.419 33.2129 108.416 32.8807 107.631 32.2457C107.252 31.9113 106.955 31.5 106.762 31.0417C106.568 30.5833 106.483 30.0893 106.511 29.5953C106.468 28.9514 106.613 28.3086 106.93 27.7403C107.248 27.172 107.725 26.701 108.306 26.3808C109.198 25.9558 110.164 25.6961 111.156 25.6154L112.246 25.4862C112.67 25.4512 113.088 25.3636 113.488 25.2255C113.664 25.1776 113.82 25.0764 113.932 24.9367C114.044 24.797 114.106 24.6264 114.11 24.45C114.13 24.2718 114.097 24.0916 114.014 23.9313C113.93 23.771 113.8 23.6374 113.64 23.5467C113.171 23.3475 112.66 23.258 112.149 23.2855C111.871 23.2573 111.59 23.2875 111.325 23.374C111.06 23.4604 110.817 23.6012 110.614 23.7864C110.38 24.0853 110.232 24.4383 110.185 24.8097L110.171 24.8963H106.896L106.903 24.7873C106.932 23.8575 107.252 22.9578 107.822 22.2067C108.684 21.1542 110.174 20.6203 112.253 20.6203C113.503 20.5991 114.74 20.8644 115.863 21.3944C116.935 21.9206 117.478 22.9176 117.478 24.3643V29.7345C117.478 30.1043 117.485 30.5588 117.501 31.085C117.489 31.3482 117.548 31.6099 117.671 31.8452C117.781 31.9863 117.928 32.0968 118.097 32.1657L118.159 32.1935V32.8126H114.522L114.496 32.7475C114.403 32.5259 114.333 32.2959 114.288 32.061C114.262 31.9131 114.239 31.7481 114.219 31.5677C113.806 31.9669 113.339 32.3121 112.832 32.5944C112.103 32.9886 111.279 33.19 110.444 33.1781ZM112.145 23.0808C112.692 23.0525 113.239 23.151 113.739 23.3678C113.934 23.4758 114.092 23.6354 114.195 23.8276C114.298 24.0198 114.342 24.2365 114.321 24.4519C114.318 24.6686 114.244 24.879 114.109 25.0525C113.974 25.2259 113.785 25.3534 113.57 25.4164C113.152 25.5627 112.716 25.6554 112.272 25.6919L111.182 25.8211C110.219 25.8984 109.28 26.149 108.413 26.5598C107.864 26.8627 107.415 27.3079 107.116 27.8448C106.817 28.3817 106.681 28.9885 106.724 29.5962C106.695 30.0608 106.775 30.5256 106.956 30.9571C107.137 31.3886 107.415 31.7761 107.77 32.0916C108.517 32.6937 109.469 33.0079 110.443 32.9738C111.24 32.9854 112.027 32.7938 112.723 32.4184C113.28 32.1086 113.785 31.7205 114.223 31.2668L114.388 31.0955L114.408 31.328C114.43 31.5917 114.457 31.827 114.496 32.028C114.533 32.2263 114.59 32.4207 114.665 32.6087H117.944V32.3246C117.767 32.2415 117.613 32.118 117.497 31.9648C117.351 31.6969 117.279 31.3974 117.288 31.0951C117.273 30.564 117.266 30.1076 117.266 29.7359V24.3648C117.266 23.0023 116.762 22.0646 115.767 21.5776C114.674 21.0627 113.47 20.8051 112.253 20.826C110.243 20.826 108.809 21.3336 107.99 22.3335C107.468 23.0208 107.167 23.8409 107.125 24.6916H109.988C110.048 24.3142 110.206 23.9576 110.448 23.6549C110.67 23.4455 110.938 23.2856 111.231 23.1863C111.525 23.087 111.837 23.0509 112.147 23.0803L112.145 23.0808ZM111.371 30.9554C110.945 30.9663 110.527 30.835 110.189 30.5836C110.014 30.4325 109.878 30.2441 109.792 30.0335C109.706 29.8229 109.672 29.5959 109.693 29.3704C109.678 29.0898 109.746 28.8109 109.888 28.5656C110.03 28.3203 110.241 28.1184 110.497 27.983C110.968 27.7621 111.473 27.6166 111.993 27.5525L112.716 27.4243C113 27.3786 113.279 27.3101 113.551 27.2195C113.759 27.1428 113.959 27.0466 114.147 26.9324L114.311 26.8368V28.16C114.287 29.2164 113.963 29.956 113.353 30.3607C112.772 30.7502 112.081 30.9577 111.373 30.9549L111.371 30.9554ZM114.096 27.198C113.944 27.2795 113.786 27.3503 113.624 27.4099C113.34 27.5046 113.048 27.5763 112.751 27.6242L112.028 27.7529C111.533 27.8149 111.051 27.9523 110.601 28.16C110.377 28.2776 110.193 28.4538 110.07 28.6682C109.947 28.8826 109.89 29.1263 109.905 29.3709C109.886 29.5655 109.914 29.7618 109.986 29.9443C110.059 30.1269 110.174 30.2909 110.323 30.4234C110.624 30.6454 110.995 30.7609 111.373 30.7506C112.038 30.752 112.687 30.5557 113.232 30.1885C113.785 29.8235 114.077 29.1393 114.098 28.1553L114.096 27.198Z" fill="#003079"/>
<path d="M27.1829 2L34.2897 5.72393L41.3971 9.44834H12.9688L20.0761 5.72345L27.1829 2Z" fill="#003079"/>
<path d="M27.1695 5.45117L31.9508 7.95706L36.7326 10.4625H17.6055L22.3872 7.95706L27.1695 5.45117Z" fill="white"/>
<path d="M41.3221 8.97656H13.0234V10.4003H41.3221V8.97656Z" fill="#003079"/>
</svg>
