<svg width="14" height="11" viewBox="0 0 14 11" fill="none" xmlns="http://www.w3.org/2000/svg">
<path d="M1 1V0.25C0.585786 0.25 0.25 0.585786 0.25 1L1 1ZM13 1H13.75C13.75 0.585786 13.4142 0.25 13 0.25V1ZM13 10V10.75C13.4142 10.75 13.75 10.4142 13.75 10H13ZM1 10H0.25C0.25 10.4142 0.585786 10.75 1 10.75L1 10ZM7 5.5L6.55247 6.10185C6.81813 6.29938 7.18187 6.29938 7.44753 6.10185L7 5.5ZM1.59753 0.548153C1.26514 0.300991 0.795316 0.370082 0.548153 0.702473C0.300991 1.03486 0.370082 1.50468 0.702473 1.75185L1.59753 0.548153ZM1 1.75H13V0.25H1V1.75ZM12.25 1V10H13.75V1H12.25ZM13 9.25H1V10.75H13V9.25ZM1.75 10V1H0.25V10H1.75ZM12.4025 0.548153L6.55247 4.89815L7.44753 6.10185L13.2975 1.75185L12.4025 0.548153ZM7.44753 4.89815L1.59753 0.548153L0.702473 1.75185L6.55247 6.10185L7.44753 4.89815Z" fill="white"/>
</svg>
