<svg width="14" height="19" viewBox="0 0 14 19" fill="none" xmlns="http://www.w3.org/2000/svg">
<path d="M1 6V5.25C0.585786 5.25 0.25 5.58579 0.25 6H1ZM13 6H13.75C13.75 5.58579 13.4142 5.25 13 5.25V6ZM13 15V15.75C13.4142 15.75 13.75 15.4142 13.75 15H13ZM1 15H0.25C0.25 15.4142 0.585786 15.75 1 15.75L1 15ZM7 10.5L6.55247 11.1018C6.81813 11.2994 7.18187 11.2994 7.44753 11.1018L7 10.5ZM1.59753 5.54815C1.26514 5.30099 0.795316 5.37008 0.548153 5.70247C0.300991 6.03486 0.370082 6.50468 0.702473 6.75185L1.59753 5.54815ZM1 6.75H13V5.25H1V6.75ZM12.25 6V15H13.75V6H12.25ZM13 14.25H1V15.75H13V14.25ZM1.75 15V6H0.25V15H1.75ZM12.4025 5.54815L6.55247 9.89815L7.44753 11.1018L13.2975 6.75185L12.4025 5.54815ZM7.44753 9.89815L1.59753 5.54815L0.702473 6.75185L6.55247 11.1018L7.44753 9.89815Z" fill="white"/>
</svg>
